<?xml version="1.0" encoding="UTF-8" standalone="no"?>
<!-- Created with Inkscape (http://www.inkscape.org/) -->

<svg
   width="100"
   height="40"
   viewBox="0 0 26.458333 10.583333"
   version="1.1"
   id="svg1"
   inkscape:version="1.4 (e7c3feb100, 2024-10-09)"
   sodipodi:docname="mbway.svg"
   xml:space="preserve"
   xmlns:inkscape="http://www.inkscape.org/namespaces/inkscape"
   xmlns:sodipodi="http://sodipodi.sourceforge.net/DTD/sodipodi-0.dtd"
   xmlns="http://www.w3.org/2000/svg"
   xmlns:svg="http://www.w3.org/2000/svg"><sodipodi:namedview
     id="namedview1"
     pagecolor="#ffffff"
     bordercolor="#000000"
     borderopacity="0.25"
     inkscape:showpageshadow="2"
     inkscape:pageopacity="0.0"
     inkscape:pagecheckerboard="0"
     inkscape:deskcolor="#d1d1d1"
     inkscape:document-units="px"
     showguides="true"
     inkscape:zoom="2.8284271"
     inkscape:cx="93.691649"
     inkscape:cy="43.663844"
     inkscape:window-width="3384"
     inkscape:window-height="1363"
     inkscape:window-x="20"
     inkscape:window-y="20"
     inkscape:window-maximized="0"
     inkscape:current-layer="layer1" /><defs
     id="defs1" /><g
     inkscape:label="Layer 1"
     inkscape:groupmode="layer"
     id="layer1"><g
       id="g15"
       transform="matrix(0.06432418,0,0,0.06432418,10.236589,15.032142)"><path
         style="fill:#fea8a8"
         d="m -42.586288,-89.797252 c 15.534349,-0.0377 40.954192,-0.0377 56.488541,0 15.534349,0.0377 2.824427,0.06855 -28.244271,0.06855 -31.068698,0 -43.778619,-0.03085 -28.24427,-0.06855 z m -33.043126,-1.347813 c -0.86549,-0.559389 -1.93967,-1.482124 -2.38707,-2.050521 -0.90696,-1.152246 -1.94399,-3.079163 -1.93885,-3.602596 0.002,-0.187699 0.36475,0.373105 0.80647,1.24623 1.0374,2.050614 2.63167,3.662925 4.59025,4.642179 0.87761,0.438791 1.33091,0.781779 1.03321,0.781779 -0.29172,0 -1.23853,-0.457682 -2.10401,-1.017071 z m 121.783651,0.246211 c 4.331601,-2.212519 6.39639,-7.012697 5.677338,-13.198556 -0.463705,-3.98915 -1.035873,-5.16779 -2.993781,-6.16707 -2.534463,-1.29354 -5.754688,0.17668 -6.583568,3.00578 -0.164202,0.56045 -0.15016,1.68615 0.04042,3.24008 0.344147,2.80611 0.141263,3.58716 -1.133711,4.364516 -0.858612,0.523495 -1.362949,0.528308 -55.462127,0.529288 -50.463717,9.14e-4 -54.652092,-0.03236 -55.341522,-0.439614 -1.18533,-0.70019 -1.35826,-1.39938 -1.16122,-4.69518 0.19508,-3.26291 0.0288,-3.88794 -1.39207,-5.23228 -2.31145,-2.18698 -6.08276,-1.41894 -7.38767,1.50452 -0.19486,0.43656 -0.35896,0.603 -0.36465,0.36986 -0.0178,-0.72796 1.14962,-2.18767 2.24642,-2.80887 1.99622,-1.13062 4.89897,-0.53499 6.29174,1.29104 0.99176,1.30026 1.21786,2.67628 0.89787,5.4643 -0.24195,2.10804 -0.22072,2.4704 0.18064,3.08295 0.25014,0.38177 0.75399,0.80788 1.11966,0.946906 0.41467,0.157659 21.077678,0.252774 54.913363,0.252774 48.423308,0 54.341212,-0.04399 55.111741,-0.409626 1.347753,-0.639554 1.537332,-1.347874 1.163173,-4.345934 -0.313606,-2.51288 -0.306073,-2.60325 0.321431,-3.85623 1.370739,-2.73706 4.125543,-3.76053 6.729282,-2.50008 1.776173,0.85983 2.482897,2.08353 2.932495,5.07763 0.663772,4.42039 0.417057,6.953429 -0.961397,9.870698 -1.154241,2.442759 -3.755886,4.858099 -5.72073,5.311065 -0.412273,0.09504 -0.01768,-0.201042 0.876876,-0.657967 z M -80.202384,-105.89275 c 0.0127,-0.30823 0.0754,-0.37092 0.15986,-0.15985 0.0764,0.19099 0.067,0.4192 -0.0209,0.50712 -0.0879,0.0879 -0.15045,-0.0683 -0.13897,-0.34727 z m 7.86701,-15.37223 c 0.19099,-0.0764 0.4192,-0.067 0.50712,0.0209 0.0879,0.0879 -0.0684,0.15045 -0.34727,0.13896 -0.30823,-0.0127 -0.37092,-0.0754 -0.15985,-0.15985 z m 82.004294,-0.0175 c 3.819922,-0.0413 10.070703,-0.0413 13.890625,0 3.819922,0.0413 0.694531,0.0751 -6.945313,0.0751 -7.639843,0 -10.765234,-0.0338 -6.945312,-0.0751 z m -87.194774,-4.16738 c 0.005,-0.43657 0.0647,-0.58313 0.13177,-0.3257 0.0671,0.25743 0.0627,0.61462 -0.01,0.79375 -0.0725,0.17913 -0.12736,-0.0315 -0.12197,-0.46805 z m 75.746443,-26.06147 c 0,-14.3338 0.03204,-20.19763 0.07119,-13.03073 0.03915,7.1669 0.03915,18.89456 0,26.06146 -0.03916,7.1669 -0.07119,1.30308 -0.07119,-13.03073 z m 121.978021,18.78542 c 0.26339,-0.29104 0.53842,-0.52917 0.61118,-0.52917 0.0728,0 -0.0832,0.23813 -0.3466,0.52917 -0.26339,0.29104 -0.53842,0.52917 -0.61118,0.52917 -0.0728,0 0.0832,-0.23813 0.3466,-0.52917 z m -84.534378,-0.66146 c 0.341775,-0.3638 0.680939,-0.66146 0.7537,-0.66146 0.07276,0 -0.147342,0.29766 -0.489116,0.66146 -0.341775,0.3638 -0.680939,0.66146 -0.7537,0.66146 -0.07276,0 0.147342,-0.29766 0.489116,-0.66146 z M 156.80965,-148.0056 c -0.3291,-0.41964 -0.31974,-0.429 0.0999,-0.0999 0.44073,0.34564 0.58089,0.56291 0.36312,0.56291 -0.0549,0 -0.2633,-0.20836 -0.46302,-0.46302 z m -27.94594,-1.32172 c 1.41883,-0.0476 3.74055,-0.0476 5.15938,0 1.41883,0.0476 0.25797,0.0865 -2.57969,0.0865 -2.83766,0 -3.99852,-0.0389 -2.57969,-0.0865 z m -114.233853,-6.41734 c 0.263389,-0.29104 0.538421,-0.52917 0.611181,-0.52917 0.07276,0 -0.08321,0.23813 -0.346597,0.52917 -0.263389,0.29104 -0.538421,0.52917 -0.611181,0.52917 -0.07276,0 0.08321,-0.23813 0.346597,-0.52917 z m 18.719849,-8.86354 c 0.0029,-0.58209 0.05712,-0.78906 0.120406,-0.45994 0.06329,0.32912 0.06088,0.80537 -0.0053,1.05834 -0.06622,0.25296 -0.118003,-0.0163 -0.115066,-0.5984 z m 37.239526,-5.52386 c 0,-0.0549 0.20836,-0.2633 0.463021,-0.46302 0.419644,-0.3291 0.429003,-0.31974 0.09989,0.0999 -0.345644,0.44073 -0.562916,0.58089 -0.562916,0.36313 z m 42.969658,-0.49541 -0.50403,-0.59532 0.59531,0.50403 c 0.32742,0.27722 0.59531,0.54511 0.59531,0.59532 0,0.21173 -0.21293,0.0554 -0.68659,-0.50403 z m -4.60507,0.23083 c 0,-0.0549 0.20836,-0.2633 0.46302,-0.46302 0.41964,-0.32911 0.429,-0.31975 0.0999,0.0999 -0.34565,0.44073 -0.56292,0.58089 -0.56292,0.36313 z m 22.03159,-1.14179 c 0.25743,-0.0671 0.61463,-0.0627 0.79376,0.01 0.17913,0.0725 -0.0315,0.12736 -0.46806,0.12197 -0.43657,-0.005 -0.58313,-0.0647 -0.3257,-0.13177 z m -118.521561,-1.07304 c 2.446716,-0.0437 6.375779,-0.0436 8.73125,1.8e-4 2.355471,0.0438 0.353613,0.0796 -4.448575,0.0795 -4.802187,-1e-4 -6.729391,-0.0359 -4.282675,-0.0796 z m 24.754134,-4.23371 c -0.329107,-0.41964 -0.319749,-0.429 0.0999,-0.0999 0.254662,0.19972 0.463021,0.40808 0.463021,0.46302 0,0.21776 -0.217272,0.0776 -0.562915,-0.36313 z m -102.952228,-5.01578 c 0.329118,-0.0633 0.805368,-0.0609 1.058333,0.005 0.252965,0.0662 -0.01631,0.11801 -0.598397,0.11507 -0.582084,-0.003 -0.789055,-0.0571 -0.459936,-0.12041 z m 46.828165,4.1e-4 c 0.327422,-0.0631 0.863203,-0.0631 1.190625,0 0.327422,0.0631 0.05953,0.11466 -0.595313,0.11466 -0.654843,0 -0.922734,-0.0516 -0.595312,-0.11466 z m 27.534651,-0.0115 c 3.247729,-0.0421 8.486479,-0.0421 11.641666,1.1e-4 3.155187,0.0422 0.497954,0.0766 -5.904963,0.0766 -6.402917,-6e-5 -8.984433,-0.0346 -5.736703,-0.0767 z m -74.087117,-10.39584 c -1.199158,-0.63332 -2.184256,-1.89549 -2.560432,-3.28059 -0.318339,-1.17214 0.174154,-5.50966 0.916286,-8.06996 0.608729,-2.10008 2.007358,-4.72733 3.291235,-6.18243 1.096713,-1.24297 3.448951,-2.82178 4.211493,-2.82672 0.210473,-0.001 -0.22083,0.29825 -0.958451,0.66583 -1.797869,0.89591 -4.153144,3.4157 -5.115958,5.4733 -1.041691,2.22616 -1.826981,5.3972 -2.025253,8.17806 -0.197547,2.7707 -0.06042,3.3839 1.035944,4.63259 1.842771,2.0988 4.671306,2.27421 6.637663,0.41163 1.089091,-1.03161 1.216235,-1.36208 1.75344,-4.55745 0.536564,-3.19156 1.051317,-4.32017 2.378265,-5.2144 l 0.884718,-0.59621 40.905143,9.9e-4 c 40.350194,9.7e-4 40.916842,0.008 41.767458,0.52674 1.259467,0.76791 1.82098,1.89055 2.301297,4.60104 0.235069,1.32652 0.494026,2.74812 0.575461,3.15911 0.177744,0.89704 1.478647,2.43979 2.504773,2.97042 1.115912,0.57706 3.03165,0.4831 4.263262,-0.20911 1.475692,-0.82938 2.325184,-2.37287 2.325184,-4.22476 0,-1.73675 -0.638192,-5.62847 -1.227588,-7.48589 -1.046897,-3.29918 -3.433989,-6.31742 -6.048453,-7.64766 -0.727604,-0.37021 -1.169346,-0.67617 -0.981647,-0.67991 0.729649,-0.0146 2.592178,1.17234 3.914062,2.49422 2.400603,2.4006 3.709011,5.61745 4.459243,10.96348 0.471639,3.36082 0.228735,4.46132 -1.328413,6.01847 -2.342464,2.34246 -6.282878,1.74452 -7.749241,-1.17591 -0.269767,-0.53727 -0.636628,-1.98889 -0.815246,-3.22582 -0.420156,-2.90957 -1.31194,-4.83019 -2.505817,-5.39672 -0.807879,-0.38336 -4.792319,-0.42411 -41.47143,-0.42411 -38.909212,0 -40.615042,0.02 -41.486239,0.48726 -1.243088,0.66668 -1.834783,1.9483 -2.3718,5.13735 -0.467859,2.77836 -0.916931,3.97309 -1.77753,4.729 -1.539958,1.35264 -3.956463,1.66974 -5.701429,0.74816 z"
         id="path14" /><path
         style="fill:#9f9f9e"
         d="m -74.065074,-121.34524 c -2.04886,-0.47693 -3.24522,-1.99862 -3.24679,-4.12964 -0.002,-2.52133 6.56724,-52.96058 7.00862,-53.81412 0.22742,-0.43977 0.90719,-1.1265 1.51061,-1.52606 0.945673,-0.62619 1.417551,-0.73917 3.418211,-0.81842 2.015101,-0.0798 2.506254,-0.007 3.725749,0.55113 0.772568,0.35369 1.791202,1.02961 2.263633,1.50204 2.404958,2.40496 6.357065,11.10848 13.769369,30.32358 1.993583,5.16802 3.743759,9.37641 3.889279,9.35198 0.145521,-0.0244 0.694872,-1.18739 1.22078,-2.58435 5.123105,-13.60845 10.400303,-26.46154 12.955534,-31.55437 3.126042,-6.23051 4.825757,-7.63722 9.212648,-7.62455 2.97654,0.009 4.798283,1.03116 5.410398,3.0369 0.265193,0.86897 6.80301,51.75351 6.820948,53.08818 0.03245,2.41458 -1.361669,4.02358 -3.772557,4.35403 -2.225346,0.30502 -4.758129,-0.85317 -5.564795,-2.54466 -0.256116,-0.53705 -0.618415,-2.58096 -0.867022,-4.8913 -0.869615,-8.08147 -4.422679,-36.26588 -4.636298,-36.77708 -0.465469,-1.1139 -3.837619,6.97338 -9.211986,22.09271 -1.888048,5.31151 -3.925744,11.14557 -4.528214,12.96458 -1.377242,4.15825 -1.973842,5.21272 -3.546738,6.26873 -2.20748,1.48206 -4.894862,1.4398 -7.147447,-0.11241 -1.471275,-1.01383 -2.054542,-2.20637 -4.241128,-8.67141 -6.110667,-18.06731 -12.169357,-33.54285 -12.836954,-32.78906 -0.20616,0.23277 -1.024445,6.56851 -4.002438,30.98971 -1.068915,8.7657 -1.352715,10.51261 -1.834509,11.29217 -0.935663,1.51394 -3.735323,2.49507 -5.768903,2.02169 z m 65.847948,-0.68546 c 1.09853,-0.56807 1.810437,-1.8626 1.811619,-3.29425 9.07e-4,-1.09761 -6.437066,-51.74934 -6.74952,-53.10288 -0.214647,-0.92984 -1.651319,-2.38981 -2.688521,-2.73212 -1.423551,-0.46981 -5.008926,-0.19931 -6.303678,0.47559 -3.301777,1.72107 -6.012288,7.20383 -15.066762,30.47667 -2.345438,6.02851 -4.386801,11.00172 -4.536364,11.05157 -0.149562,0.0498 -1.743867,-3.75147 -3.5429,-8.44739 -5.984336,-15.62058 -10.111274,-25.25833 -12.545922,-29.29883 -2.170163,-3.60156 -3.995736,-4.64112 -7.843093,-4.4662 -1.719616,0.0782 -2.156775,0.2001 -2.986367,0.83287 -0.53452,0.4077 -1.15402,1.09354 -1.37666,1.52409 -0.41547,0.80343 -7.00181,51.31526 -7.00127,53.694 3.5e-4,1.5136 0.77973,2.82172 1.97997,3.32322 1.40683,0.58781 3.77549,0.4843 5.00491,-0.21872 1.92201,-1.09905 1.921878,-1.0986 3.061644,-10.51821 1.525417,-12.60681 3.945653,-32.0068 4.119193,-33.01838 0.08274,-0.48229 0.273299,-0.83593 0.42347,-0.78587 1.082089,0.36069 8.804441,20.34205 14.348541,37.12642 1.05576,3.19625 1.9739,4.58268 3.576071,5.40005 2.486823,1.26868 4.943156,0.90849 6.909444,-1.01319 1.1905,-1.1635 1.33161,-1.46579 2.978475,-6.38073 2.293957,-6.84614 7.515351,-21.36713 9.187485,-25.55092 1.771158,-4.43155 4.113977,-9.46564 4.458697,-9.58055 0.151961,-0.0506 0.345203,0.3025 0.429426,0.78479 0.14063,0.80529 3.878923,31.15392 4.73047,38.40344 0.38589,3.2852 0.669006,3.96586 2.091273,5.02773 1.331928,0.99443 3.904965,1.12833 5.530369,0.2878 z m 9.353233,0.31216 c -0.988943,-0.44802 -2.126106,-1.64319 -2.496709,-2.62407 -0.191988,-0.50814 -0.281416,-9.14992 -0.281416,-27.19444 0,-21.87058 0.06307,-26.597 0.364289,-27.301 0.440546,-1.02963 1.615907,-2.1714 2.629498,-2.55436 0.489225,-0.18484 5.119887,-0.28007 13.49375,-0.27751 10.351723,0.003 13.062929,0.0779 14.418894,0.39762 6.297124,1.48457 11.554937,6.96601 12.864619,13.4118 0.513393,2.52673 0.516673,4.04886 0.01384,6.42268 -0.468183,2.21026 -1.389019,4.17347 -2.787236,5.94234 l -1.029963,1.30301 1.683165,1.20108 c 4.226786,3.01617 6.936202,7.93817 7.22313,13.12173 0.168274,3.04 -0.401757,5.59813 -1.94304,8.71981 -2.046018,4.14396 -5.626981,7.29027 -10.197623,8.95986 l -1.940614,0.70887 -15.610417,0.0611 c -12.690914,0.0497 -15.758866,-0.006 -16.404167,-0.29851 z m 32.514784,-0.41663 c 3.613258,-0.92411 7.020855,-3.08201 9.412472,-5.96053 2.267789,-2.72949 3.984962,-7.49859 3.973359,-11.0352 -0.01698,-5.17608 -3.313889,-11.17369 -7.6836,-13.97773 -0.719202,-0.46151 -1.30764,-0.9345 -1.30764,-1.05108 0,-0.11658 0.426129,-0.72201 0.946954,-1.3454 2.078171,-2.48741 3.114996,-5.47072 3.117721,-8.9708 0.0061,-7.86142 -5.119848,-14.47479 -12.727368,-16.42047 -1.848889,-0.47286 -2.997655,-0.51252 -14.729109,-0.50851 -12.709967,0.004 -12.724969,0.005 -13.776763,0.6007 -0.590377,0.33438 -1.314922,1.05892 -1.649293,1.6493 l -0.596353,1.05294 v 26.59062 26.59063 l 0.596353,1.05294 c 0.334371,0.59038 1.058916,1.31492 1.649293,1.64929 l 1.05294,0.59635 14.840489,0.004 c 13.912395,0.004 14.968071,-0.0283 16.880545,-0.5174 z m -25.910736,-8.8048 c -0.06942,-0.1819 -0.09545,-9.67714 -0.05784,-21.10052 l 0.06838,-20.7698 8.598958,-0.0786 c 9.197964,-0.084 10.841716,0.0611 12.984234,1.14685 1.67557,0.84908 3.482864,2.92186 4.033091,4.62553 0.951035,2.94471 0.334712,5.43995 -1.89345,7.66579 -2.20974,2.20744 -3.02064,2.43287 -9.435333,2.62307 -5.909123,0.17521 -6.533844,0.34872 -7.761342,2.15559 -0.518692,0.76351 -0.603448,1.17087 -0.52133,2.50564 0.112492,1.82849 0.637835,2.71555 2.100988,3.54756 0.893113,0.50787 1.386151,0.54722 6.879166,0.54907 6.49461,0.002 8.682686,0.24182 10.679601,1.16955 4.252449,1.9756 6.188823,6.42504 4.613274,10.60046 -0.810974,2.1492 -2.977574,4.32862 -5.088171,5.1183 -1.483504,0.55505 -1.882069,0.5722 -13.301665,0.5722 -9.174164,0 -11.800194,-0.073 -11.898557,-0.33073 z m 25.668219,-0.71374 c 3.731061,-1.83601 5.654281,-6.02088 4.535542,-9.86921 -0.591556,-2.03488 -2.48482,-4.08901 -4.716104,-5.11683 l -1.664621,-0.76679 -7.408334,-0.14212 c -6.255216,-0.11999 -7.537271,-0.21146 -8.236713,-0.58768 -1.052674,-0.56621 -2.169402,-1.88625 -2.368796,-2.80007 -0.08487,-0.38896 -0.205056,-0.86879 -0.267075,-1.06627 -0.34776,-1.10736 1.191763,-3.79213 2.640641,-4.605 0.354396,-0.19883 2.556035,-0.36554 6.014612,-0.45543 l 5.455586,-0.1418 1.808723,-0.92352 c 6.0725,-3.10058 5.52779,-11.23467 -0.924942,-13.81204 -1.428044,-0.5704 -1.782622,-0.58989 -10.868911,-0.59743 l -9.392708,-0.008 -0.06775,20.84604 -0.06775,20.84603 12.106293,-0.0762 12.106292,-0.0763 z m 83.140906,-0.81175 c -1.09878,-0.8643 -1.34605,-2.04196 -0.84161,-4.00823 0.79983,-3.11767 6.93032,-21.22484 8.71921,-25.75326 3.22656,-8.1678 3.94269,-9.12527 6.82658,-9.12714 2.52747,-0.002 3.2408,0.45429 4.28057,2.73591 2.48492,5.45279 11.78437,31.92696 11.78437,33.54836 0,1.21331 -1.23456,2.36913 -2.70793,2.5352 -1.93386,0.21797 -2.42938,-0.46018 -4.29631,-5.87983 -0.85218,-2.47386 -1.66348,-4.64675 -1.8029,-4.82865 -0.19167,-0.25007 -1.9858,-0.33073 -7.35714,-0.33073 h -7.10365 l -0.82224,2.71198 c -1.97682,6.52007 -2.38535,7.5742 -3.20164,8.26106 -0.99692,0.83885 -2.50816,0.89767 -3.47731,0.13533 z m 3.32829,-0.26331 c 0.70542,-0.55488 1.23965,-1.96599 2.85375,-7.53777 0.46372,-1.60072 0.96134,-3.05924 1.10583,-3.24114 0.19864,-0.25007 2.02146,-0.33073 7.47396,-0.33073 5.45507,0 7.27405,0.0805 7.46913,0.33073 0.14184,0.1819 0.94343,2.37617 1.78131,4.87616 0.83788,2.49998 1.75174,4.79049 2.03079,5.09002 1.02058,1.09546 2.67937,1.03426 3.85589,-0.14226 0.57533,-0.57533 0.64976,-0.83218 0.51855,-1.78941 -0.28721,-2.09545 -8.50321,-25.49166 -11.20688,-31.91316 -0.52079,-1.23692 -1.2315,-2.54661 -1.57937,-2.91041 -0.56987,-0.59598 -0.83868,-0.66146 -2.71536,-0.66146 -2.5647,0 -2.82377,0.19552 -4.38222,3.30729 -2.85672,5.70404 -11.32213,30.31095 -11.32213,32.91072 0,2.06433 2.49791,3.28479 4.11675,2.01142 z m 6.10272,-16.54022 c -0.29612,-0.77167 4.7225,-14.66311 5.37283,-14.87191 0.518,-0.16631 5.87004,14.43512 5.50662,15.02315 -0.0904,0.14633 -2.37486,0.25226 -5.44026,0.25226 -4.49169,0 -5.30758,-0.0605 -5.43919,-0.4035 z m 10.4902,-0.37368 c 0,-0.52545 -2.78475,-8.68319 -4.13786,-12.12158 -0.41525,-1.05521 -0.85735,-1.88444 -0.98243,-1.84275 -0.33803,0.11268 -1.30939,2.60407 -3.35975,8.61725 -1.00991,2.96181 -1.77021,5.49189 -1.68955,5.62239 0.0807,0.13051 2.40181,0.23728 5.15812,0.23728 4.78106,0 5.01147,-0.0236 5.01147,-0.51259 z m -56.360386,16.69031 c -1.288214,-0.68614 -2.069897,-2.41665 -3.662396,-8.10793 -1.811432,-6.47369 -6.123059,-26.09637 -6.123059,-27.86669 0,-0.36248 0.381122,-1.01005 0.899583,-1.52851 0.766596,-0.7666 1.082517,-0.89959 2.13702,-0.89959 1.009881,0 1.377165,0.13973 1.997283,0.75985 0.417916,0.41792 0.822283,1.043 0.898593,1.38906 0.07631,0.34607 0.91895,4.47501 1.872534,9.17542 1.578849,7.78246 3.148656,14.93413 3.871186,17.63621 0.201042,0.75185 0.340019,0.93831 0.493003,0.66146 0.561931,-1.01693 3.437814,-12.26321 6.251845,-24.44815 0.540311,-2.33958 1.276426,-3.44168 2.694528,-4.0342 1.558444,-0.65116 3.385731,0.0553 4.107157,1.58783 0.218619,0.46442 1.187232,4.41627 2.152474,8.7819 2.630075,11.89536 4.296365,18.31728 4.654515,17.93861 0.24282,-0.25673 1.47633,-5.5689 3.9504,-17.01257 1.02248,-4.72943 1.98896,-9.16376 2.14775,-9.85408 0.38627,-1.67928 1.43981,-2.58134 3.01484,-2.58134 1.36012,0 2.64723,0.91838 2.89999,2.0692 0.16342,0.74403 -1.11755,7.29507 -3.43382,17.56098 -2.34924,10.41204 -3.99808,16.05174 -5.177,17.70737 -1.71128,2.40327 -6.090626,2.00403 -7.347491,-0.66983 -0.689218,-1.46625 -2.512821,-7.89908 -4.426184,-15.61354 -0.791533,-3.19136 -1.489519,-5.85285 -1.55108,-5.91441 -0.131852,-0.13185 -0.202805,0.13056 -2.130328,7.87898 -2.664649,10.71158 -3.987401,14.37577 -5.534817,15.33212 -1.144516,0.70735 -3.379111,0.73223 -4.656526,0.0519 z m 4.425227,-0.29333 c 1.550507,-0.94539 2.627542,-3.96 5.612112,-15.70823 1.102932,-4.3415 2.111746,-7.91337 2.241809,-7.9375 0.130062,-0.0241 0.998057,2.99223 1.928876,6.70301 2.009503,8.01103 3.604072,13.66361 4.295186,15.22599 0.632717,1.43036 1.554636,2.03762 3.287266,2.16527 2.65766,0.19581 3.87957,-1.00438 5.19115,-5.09885 2.11157,-6.59189 7.27768,-29.87253 6.97107,-31.41451 -0.20944,-1.05328 -1.2596,-1.77998 -2.57225,-1.77998 -1.28838,0 -2.08937,0.4873 -2.48336,1.51081 -0.15628,0.40598 -0.83638,3.35752 -1.51134,6.55898 -1.31451,6.23495 -4.20512,19.20022 -4.64538,20.83594 -0.308,1.14432 -0.6832,1.27023 -1.0342,0.34705 -0.57078,-1.50127 -2.748821,-10.36828 -4.358388,-17.74341 -0.952765,-4.36562 -1.906399,-8.31862 -2.119185,-8.78444 -1.035205,-2.26621 -4.419003,-2.33086 -5.546002,-0.10596 -0.191762,0.37858 -1.211202,4.31972 -2.265422,8.75811 -2.136318,8.99413 -4.678828,18.52506 -5.040415,18.89465 -0.140718,0.14383 -0.340609,-0.0328 -0.494192,-0.4368 -0.408792,-1.07521 -2.837227,-12.05603 -4.534511,-20.50402 -0.854688,-4.25409 -1.673729,-7.95846 -1.820089,-8.23194 -0.615798,-1.15063 -3.18692,-1.40419 -4.272903,-0.42139 -0.831202,0.75223 -0.812396,1.70924 0.124464,6.33387 2.999201,14.80499 6.039269,26.9126 7.36426,29.32949 1.05236,1.91959 3.804752,2.64814 5.681444,1.50386 z m 74.001409,-0.11522 -0.89959,-0.89958 v -6.44781 -6.44781 l -1.18089,-1.5788 c -2.28828,-3.05933 -7.96769,-14.11205 -9.44054,-18.37227 -0.5861,-1.69532 -0.3529,-2.84359 0.75439,-3.71459 0.95515,-0.75132 2.74616,-0.72075 3.63234,0.062 0.39486,0.34878 1.53499,2.51276 2.75314,5.22552 2.66009,5.92389 5.83494,11.95955 6.22307,11.83058 0.49588,-0.16478 2.37922,-3.70214 4.96049,-9.31704 1.33797,-2.91042 2.6675,-5.80131 2.95452,-6.42421 0.28701,-0.62289 0.77164,-1.3075 1.07695,-1.52135 0.82624,-0.57872 2.63573,-0.49669 3.38462,0.15344 l 0.62462,0.54225 -0.84676,-0.40996 c -1.19625,-0.57917 -2.31644,-0.51216 -3.09845,0.18535 -0.3831,0.34171 -1.57487,2.60842 -2.79757,5.32089 -2.50912,5.56631 -5.12037,10.75354 -5.84111,11.60334 -0.50975,0.60102 -0.51495,0.60144 -0.9251,0.0753 -0.6097,-0.78219 -4.84301,-9.29385 -6.49136,-13.05178 -1.69854,-3.87238 -2.22293,-4.54301 -3.55233,-4.54301 -1.78911,0 -2.75175,0.86704 -2.76495,2.49035 -0.0178,2.19254 7.11789,16.66088 9.95072,20.17605 l 0.88879,1.10286 v 6.25247 c 0,6.79437 0.11255,7.41837 1.44781,8.02676 0.9124,0.41571 1.59313,0.399 2.48257,-0.0609 1.26242,-0.65283 1.36128,-1.24826 1.36128,-8.1987 0,-6.0355 0.0328,-6.47588 0.52966,-7.1075 1.59871,-2.03244 6.03776,-10.33489 8.21403,-15.36289 0.49378,-1.14083 0.94112,-1.94424 0.99408,-1.78536 0.23272,0.69816 -6.9245,14.52967 -8.84677,17.09661 -0.58233,0.77763 -0.60264,1.00564 -0.67949,7.62889 l -0.0792,6.8273 -0.86407,0.77163 c -1.26546,1.13009 -2.71407,1.08286 -3.92488,-0.12795 z"
         id="path13" /><path
         style="fill:#fe6060"
         d="m -73.003834,-90.247256 c -3.38351,-1.057426 -6.24561,-4.168574 -7.07069,-7.685946 -0.27528,-1.173541 0.2324,-0.471662 0.60328,0.834058 0.79386,2.794819 3.68983,5.725536 6.39173,6.468414 0.65484,0.180047 1.30373,0.42635 1.44198,0.547339 0.34376,0.300856 -0.0182,0.257443 -1.3663,-0.163865 z m 116.202137,0.129867 c 0.09354,-0.151353 0.371409,-0.275282 0.617482,-0.275397 1.084925,-5.06e-4 3.672915,-1.555905 4.99409,-3.001482 2.333721,-2.553462 3.239304,-6.033597 2.724806,-10.471362 -0.424529,-3.66173 -0.652754,-4.33377 -1.834267,-5.40119 -1.662615,-1.50208 -3.879773,-1.5617 -5.671269,-0.15251 -1.442339,1.13455 -1.714774,2.28383 -1.380308,5.82293 0.177614,1.87939 0.1404,2.41843 -0.214313,3.10437 -0.915361,1.770116 3.689573,1.643518 -57.053297,1.5685 l -55.064591,-0.068 -0.8017,-0.897275 -0.80171,-0.897275 0.17055,-3.20377 c 0.16071,-3.01902 0.13566,-3.26479 -0.43444,-4.2621 -0.68084,-1.19102 -2.45797,-2.24895 -3.77781,-2.24895 -0.44766,0 -1.34516,0.26789 -1.99446,0.59531 -1.33104,0.6712 -2.37117,2.34281 -2.37117,3.81076 0,0.4699 -0.12383,0.9309 -0.27519,1.02444 -0.17207,0.10634 -0.22735,-0.0613 -0.14753,-0.44741 0.0702,-0.33961 0.19992,-1.06651 0.28824,-1.61532 0.19148,-1.18985 1.49596,-2.77118 2.70154,-3.2749 1.69855,-0.70971 3.58264,-0.35966 4.93104,0.91613 1.42086,1.34435 1.58715,1.96937 1.39207,5.23228 -0.19704,3.2958 -0.0241,3.99499 1.16122,4.695185 0.68943,0.407257 4.877802,0.440528 55.341519,0.439614 54.099178,-9.8e-4 54.603515,-0.0058 55.462126,-0.529288 1.274975,-0.777351 1.477859,-1.558401 1.133712,-4.364511 -0.426263,-3.47568 0.222848,-5.11647 2.450805,-6.195 1.41651,-0.68572 2.814409,-0.7031 4.092346,-0.0509 1.957908,0.99927 2.530076,2.17792 2.993781,6.16707 0.25441,2.18864 0.255748,3.21635 0.0062,4.743661 -0.641052,3.923034 -2.720132,6.995719 -5.690045,8.409349 -1.823425,0.86792 -3.216019,1.258401 -2.949403,0.827008 z m -123.644377,-9.800188 c 0,-0.363803 0.0601,-0.512633 0.13345,-0.330733 0.0734,0.18191 0.0734,0.479561 0,0.661462 -0.0734,0.181901 -0.13345,0.03307 -0.13345,-0.330729 z m 0,-3.175003 c 0,-0.3638 0.0601,-0.51263 0.13345,-0.33073 0.0734,0.18191 0.0734,0.47956 0,0.66146 -0.0734,0.1819 -0.13345,0.0331 -0.13345,-0.33073 z m 15.431429,-89.26871 c -0.986153,-0.4297 -2.441548,-2.05004 -2.6743,-2.9774 -0.513487,-2.04589 0.573971,-8.07112 2.010972,-11.14208 0.810053,-1.73114 2.933046,-4.2014 4.378554,-5.09477 1.140577,-0.70491 3.036568,-1.35602 3.036568,-1.0428 0,0.13907 -0.191693,0.25285 -0.425985,0.25285 -0.854911,0 -3.60788,1.71249 -4.647729,2.89113 -2.007443,2.27539 -3.337949,5.66203 -3.927588,9.99719 -0.394485,2.90036 -0.256539,4.25682 0.547767,5.38637 0.669912,0.9408 2.371529,1.81907 3.541354,1.82783 1.185631,0.009 2.972731,-0.98099 3.598203,-1.99303 0.346516,-0.56067 0.703187,-1.88247 0.94091,-3.48695 0.656906,-4.4337 1.866687,-5.97022 4.946497,-6.28247 0.904353,-0.0917 19.384592,-0.13048 41.067196,-0.0862 l 39.422917,0.0805 1.026379,0.63802 c 1.333329,0.82883 2.130883,2.57451 2.643772,5.78665 0.459933,2.88049 1.002476,3.94089 2.430009,4.74947 2.676188,1.51584 6.056728,-0.17192 6.397352,-3.19393 0.15726,-1.3952 -0.582721,-6.29741 -1.238145,-8.20243 -1.404796,-4.08311 -3.577245,-6.63927 -6.581796,-7.7443 -1.491899,-0.54871 -2.082296,-0.98841 -0.854243,-0.63621 3.437168,0.98577 6.484479,4.25112 7.781375,8.33814 0.589396,1.85742 1.227588,5.74915 1.227588,7.4859 0,1.85188 -0.849492,3.39537 -2.325184,4.22476 -1.231612,0.69221 -3.14735,0.78617 -4.263262,0.20911 -1.026126,-0.53063 -2.327029,-2.07338 -2.504773,-2.97043 -0.08143,-0.41099 -0.340392,-1.83259 -0.575461,-3.15911 -0.480317,-2.71048 -1.04183,-3.83312 -2.301297,-4.60103 -0.850616,-0.51863 -1.417264,-0.52577 -41.767458,-0.52675 l -40.905143,-9.9e-4 -0.884718,0.59621 c -1.326948,0.89423 -1.841701,2.02284 -2.378265,5.2144 -0.537205,3.19537 -0.664349,3.52584 -1.75344,4.55746 -1.341587,1.27078 -3.323738,1.63032 -4.988626,0.90488 z M 28.20629,-213.0754 c 0.190996,-0.0764 0.419199,-0.067 0.507118,0.0209 0.08792,0.0879 -0.06835,0.15045 -0.347266,0.13896 -0.308224,-0.0127 -0.370919,-0.0754 -0.159852,-0.15985 z"
         id="path12" /><path
         style="fill:#5d5d5c"
         d="m -9.976393,-121.69688 c 2.649883,-0.69585 3.08699,-1.22366 3.327126,-4.01757 l 0.159187,-1.85209 0.04179,1.7198 c 0.06625,2.72642 -1.045673,4.03645 -3.698768,4.35773 l -1.152253,0.13953 z m -62.706251,-0.16303 c 2.02801,-0.17623 3.34148,-0.74341 3.98065,-1.7189 0.258281,-0.39419 0.644623,-2.45512 1.028143,-5.4846 0.337912,-2.66922 0.627918,-4.55547 0.644457,-4.19167 0.01654,0.36381 -0.204248,2.56431 -0.490637,4.89001 -0.573995,4.66128 -0.771739,5.13991 -2.541653,6.15199 -0.80731,0.46165 -1.40979,0.58256 -2.75325,0.55254 l -1.71979,-0.0384 z m 59.2432,-0.25381 c -0.886118,-0.54035 -1.961506,-1.77345 -1.959918,-2.24735 5.44e-4,-0.16228 0.232985,0.0854 0.516535,0.55047 0.605156,0.99248 1.541391,1.65783 2.730249,1.9403 0.732808,0.1741 0.759887,0.20641 0.19181,0.22882 -0.363802,0.0144 -1.029206,-0.19816 -1.478676,-0.47224 z m 14.316361,-0.10475 c -0.590377,-0.33437 -1.314922,-1.05891 -1.649293,-1.64929 l -0.596353,-1.05294 v -26.59063 -26.59062 l 0.596353,-1.05294 c 0.331148,-0.58469 1.064606,-1.32097 1.649293,-1.65565 l 1.05294,-0.60271 13.361459,0.0718 c 12.990708,0.0698 13.409178,0.0881 15.08125,0.65646 3.660599,1.24438 7.108573,3.90601 9.107006,7.03006 1.006249,1.57302 2.272856,4.59892 2.266537,5.41472 -0.0019,0.25134 -0.335715,-0.49552 -0.741708,-1.65969 -1.7181,-4.92658 -5.67912,-8.84819 -10.627792,-10.52205 -1.672624,-0.56576 -2.121082,-0.58549 -15.095668,-0.66413 l -13.371834,-0.081 -0.90937,0.61283 c -0.500154,0.33705 -1.180094,1.01455 -1.510979,1.50555 l -0.601609,0.89273 v 26.64465 26.64467 l 0.601609,0.89272 c 0.330885,0.491 1.003336,1.16345 1.494336,1.49434 l 0.892727,0.60161 h 14.867507 c 16.738502,0 16.972855,-0.0228 20.85249,-2.02812 2.83209,-1.46386 5.892227,-4.6248 7.285709,-7.5257 1.146625,-2.387 1.898001,-5.44682 1.890611,-7.69909 -0.01677,-5.11099 -2.880076,-10.44729 -7.296855,-13.59904 -0.931911,-0.665 -1.694384,-1.3261 -1.694384,-1.46912 0,-0.14302 0.470422,-0.81793 1.045382,-1.4998 0.57496,-0.68187 1.41178,-2.01292 1.8596,-2.95789 0.447821,-0.94496 0.735886,-1.42046 0.640145,-1.05666 -0.299434,1.1378 -1.347805,3.02839 -2.33359,4.2083 -0.520825,0.62339 -0.946954,1.22882 -0.946954,1.3454 0,0.11658 0.588438,0.58957 1.30764,1.05108 4.369711,2.80404 7.666617,8.80165 7.6836,13.97773 0.0116,3.53661 -1.70557,8.30571 -3.973359,11.0352 -2.391617,2.87852 -5.799214,5.03642 -9.412472,5.96053 -1.912474,0.48913 -2.96815,0.52149 -16.880545,0.51741 l -14.840489,-0.004 z m -76.544911,-0.0725 c -0.97314,-0.68162 -1.38416,-1.79062 -1.33749,-3.60882 l 0.0428,-1.66678 0.15907,1.85208 c 0.17184,2.00079 0.51251,2.73202 1.58216,3.39605 0.37771,0.23448 0.56441,0.4295 0.41489,0.43337 -0.14952,0.004 -0.53715,-0.17878 -0.86141,-0.4059 z m 32.158067,-1.28646 c -2.768125,-0.98796 -3.181803,-1.68455 -6.133864,-10.32878 -1.387283,-4.06225 -2.478391,-7.42985 -2.424685,-7.48356 0.102132,-0.10213 0.260641,0.34414 3.292016,9.26852 1.027417,3.02473 2.119036,5.852 2.425818,6.28284 0.683071,0.95928 2.433268,2.00691 3.757205,2.24898 1.635163,0.29898 3.549701,-0.32075 4.830058,-1.56346 1.036189,-1.00573 1.252542,-1.47883 2.775096,-6.06829 0.908211,-2.73763 1.696556,-4.93226 1.751879,-4.87693 0.05532,0.0553 -0.627937,2.2952 -1.518355,4.97752 -1.533842,4.62058 -1.684225,4.94074 -2.860926,6.09089 -1.737846,1.69862 -3.788394,2.20385 -5.894242,1.45227 z m 27.583955,-4.22081 c -0.179653,-1.66781 -0.277312,-3.18037 -0.21702,-3.36124 0.06029,-0.18088 0.260066,1.13091 0.443943,2.91508 0.183876,1.78417 0.281536,3.29673 0.21702,3.36124 -0.06452,0.0645 -0.26429,-1.24727 -0.443943,-2.91508 z m -60.790992,-0.82667 c 0.003,-0.58208 0.0571,-0.78905 0.12041,-0.45993 0.0633,0.32912 0.0609,0.80537 -0.005,1.05833 -0.0662,0.25297 -0.118,-0.0163 -0.11507,-0.5984 z m 69.398431,-2.92244 c -0.257882,-2.11896 -0.414758,-3.90677 -0.348612,-3.97292 0.06615,-0.0661 0.33126,1.61343 0.589143,3.73239 0.257882,2.11896 0.414757,3.90677 0.348611,3.97292 -0.06615,0.0662 -0.331259,-1.61343 -0.589142,-3.73239 z m -69.183571,1.46723 c -0.0463,-0.742 1.14232,-9.88349 1.24505,-9.5753 0.0562,0.1686 -0.15193,2.36226 -0.46253,4.87478 -0.54703,4.42518 -0.73079,5.52903 -0.78252,4.70052 z m 84.039828,-0.43345 c -0.101149,-0.10115 -0.183908,-9.67633 -0.183908,-21.27817 0,-18.99113 0.04173,-21.11027 0.418514,-21.25486 0.771757,-0.29615 17.475616,-0.17575 18.949192,0.13658 3.500435,0.74194 6.542763,3.3949 6.962614,6.0715 0.114353,0.72901 0.05395,0.65599 -0.307301,-0.37151 -0.568283,-1.61635 -2.448545,-3.72406 -4.042952,-4.532 -2.142518,-1.0857 -3.78627,-1.23089 -12.984234,-1.14685 l -8.598958,0.0786 v 21.03437 21.03437 l 11.822931,0.0689 c 11.574982,0.0674 11.855155,0.0568 13.359507,-0.50604 2.045091,-0.76517 4.282332,-2.97285 5.056481,-4.98966 0.306606,-0.79878 0.562507,-1.27373 0.568668,-1.05544 0.02297,0.81392 -1.265286,3.08123 -2.391154,4.20837 -0.640392,0.64112 -1.819194,1.47456 -2.619558,1.85208 l -1.455209,0.68642 -12.185362,0.0737 c -6.701949,0.0405 -12.268121,-0.009 -12.369271,-0.11024 z m -24.374384,-5.27399 c -0.258192,-2.26417 -0.415309,-4.1708 -0.349151,-4.23696 0.06616,-0.0662 0.332133,1.73162 0.591055,3.99506 0.258922,2.26344 0.41604,4.17007 0.349151,4.23696 -0.06689,0.0669 -0.332864,-1.73089 -0.591055,-3.99506 z m 133.49307,2.86317 c -0.42483,-0.40018 -0.84704,-1.08479 -0.93825,-1.52135 -0.12194,-0.58365 -0.0947,-0.6887 0.10273,-0.39688 0.14772,0.21828 0.2704,0.5966 0.27262,0.8407 0.006,0.65984 1.28079,1.54055 2.22982,1.54055 1.78388,0 1.88384,-0.19998 4.51694,-9.03687 0.39762,-1.33448 0.85348,-2.35568 1.0925,-2.4474 0.61445,-0.23579 14.47089,-0.18181 14.84818,0.0578 0.17934,0.11392 1.04523,2.34452 1.9242,4.95689 1.68394,5.0048 2.25067,5.94038 3.59844,5.94038 0.93844,0 2.15284,-0.69116 2.35973,-1.34302 0.0969,-0.30529 0.0964,-0.98006 -0.001,-1.49949 -0.24893,-1.32695 -5.73982,-17.29987 -8.34561,-24.27729 -2.92173,-7.8234 -3.86384,-9.85706 -4.78765,-10.33478 -0.90231,-0.4666 -3.30379,-0.49127 -4.20233,-0.0432 -1.17127,0.58411 -3.93339,6.64083 -6.75791,14.8186 -0.542,1.56923 -1.03128,2.80732 -1.08729,2.7513 -0.2821,-0.2821 4.06049,-11.6805 5.66425,-14.86748 1.49379,-2.96846 1.77144,-3.17238 4.31939,-3.17238 1.87668,0 2.14549,0.0655 2.71536,0.66146 0.34787,0.3638 1.05858,1.67349 1.57937,2.91041 2.70367,6.4215 10.91967,29.81771 11.20688,31.91316 0.13121,0.95723 0.0568,1.21408 -0.51855,1.78941 -1.17652,1.17652 -2.83531,1.23772 -3.85589,0.14226 -0.27905,-0.29953 -1.19291,-2.59004 -2.03079,-5.09003 -0.83788,-2.49998 -1.63947,-4.69425 -1.78131,-4.87615 -0.19508,-0.25019 -2.01406,-0.33073 -7.46913,-0.33073 -5.4525,0 -7.27532,0.0807 -7.47396,0.33073 -0.14449,0.1819 -0.64211,1.64041 -1.10583,3.24114 -1.6141,5.57178 -2.14833,6.98289 -2.85375,7.53777 -0.97734,0.76877 -2.28147,0.68959 -3.22116,-0.19558 z m -36.276175,-0.26499 c -0.549331,-0.27484 -1.168855,-0.90811 -1.526348,-1.56021 -1.018787,-1.85835 -5.175928,-17.29287 -4.767638,-17.70115 0.06536,-0.0654 0.39088,1.16105 0.723371,2.72537 0.870186,4.0941 3.365063,12.92299 4.114703,14.56116 0.721824,1.57737 1.70277,2.17368 3.575801,2.17368 1.469875,0 2.539228,-0.6118 3.131131,-1.79139 0.904996,-1.80355 2.381728,-6.72824 4.143815,-13.81903 2.347445,-9.44633 2.214865,-8.99583 2.647445,-8.99583 0.209899,0 0.45499,0.32742 0.544646,0.7276 0.08966,0.40018 0.269854,1.14432 0.400441,1.65365 0.130586,0.50932 0.226579,1.10463 0.213318,1.32291 -0.01326,0.21828 -0.221439,-0.35448 -0.462617,-1.2728 -0.241178,-0.91832 -0.557086,-1.67249 -0.702017,-1.67592 -0.144932,-0.003 -1.165911,3.54588 -2.268843,7.88738 -2.98457,11.74823 -4.061605,14.76284 -5.612112,15.70823 -1.066227,0.65012 -2.918135,0.67523 -4.155096,0.0563 z m 19.851335,0.0151 c -0.925215,-0.48193 -1.667651,-1.50963 -1.969788,-2.72663 -0.09032,-0.36381 0.130341,-0.0324 0.490354,0.73648 0.790043,1.68727 1.920644,2.29969 3.895234,2.10996 2.49206,-0.23946 3.21652,-1.31789 4.91195,-7.31195 0.54406,-1.92348 1.02399,-3.39289 1.06651,-3.26534 0.14585,0.43755 -1.80157,6.8046 -2.52278,8.24819 -0.39661,0.79386 -1.04359,1.67663 -1.43774,1.9617 -1.01648,0.73517 -3.25743,0.86031 -4.43374,0.24759 z m 59.02221,0.0791 c -1.24868,-0.69209 -1.33266,-1.18749 -1.34267,-7.92062 l -0.009,-6.30547 -0.88879,-1.10287 c -2.39824,-2.9759 -9.99914,-17.99726 -9.94143,-19.64688 0.01,-0.27829 0.17054,-0.0297 0.35734,0.55236 1.39362,4.34255 8.47755,17.8496 10.23925,19.52332 0.46149,0.43845 0.49821,0.95178 0.49821,6.96567 v 6.49234 l 0.7734,0.77339 c 0.52784,0.52785 1.03833,0.7734 1.60785,0.7734 0.56951,0 1.08001,-0.24555 1.60785,-0.7734 l 0.7734,-0.77339 v -6.66301 -6.663 l 0.75406,-0.96412 c 1.76244,-2.25341 6.79817,-11.84699 8.66483,-16.50739 0.27664,-0.69068 0.58311,-1.25623 0.68104,-1.25678 0.22038,-0.001 -2.10449,5.19679 -4.1136,9.19732 -1.57642,3.13897 -4.29734,7.84763 -5.19209,8.98512 -0.49684,0.63163 -0.52966,1.07201 -0.52966,7.10751 0,4.42493 -0.0987,6.65081 -0.31609,7.12791 -0.57937,1.27158 -2.33337,1.79368 -3.62353,1.07859 z m -226.215444,-1.48285 c -0.04538,-1.14702 3.90783,-32.09194 4.127846,-32.31195 0.115371,-0.11537 0.345339,-0.12543 0.511039,-0.0224 0.592606,0.36865 5.610081,11.82233 5.310297,12.12212 -0.05602,0.056 -0.49482,-0.93951 -0.975122,-2.21226 -0.924613,-2.45014 -3.903202,-9.02308 -4.277927,-9.44022 -0.122009,-0.13582 -0.297521,-0.17126 -0.390027,-0.0788 -0.09251,0.0925 -1.093335,7.46644 -2.224065,16.38653 -1.13073,8.92008 -2.067648,15.92068 -2.082041,15.55687 z m 182.832474,-1.19063 c 0.002,-0.55198 0.70358,-2.57975 0.73178,-2.11667 0.009,0.14553 -0.15271,0.80037 -0.35905,1.45521 -0.20634,0.65485 -0.37407,0.9525 -0.37273,0.66146 z m -124.247676,-3.98077 c -0.257882,-2.11896 -0.414758,-3.90677 -0.348612,-3.97292 0.06615,-0.0661 0.33126,1.61343 0.589142,3.73238 0.257883,2.11896 0.414758,3.90677 0.348612,3.97292 -0.06615,0.0661 -0.33126,-1.61343 -0.589142,-3.73238 z m -24.702286,3.05473 c 1.054597,-3.15657 4.829128,-13.46703 4.903049,-13.39311 0.119689,0.11969 -4.633318,13.43648 -4.869931,13.64438 -0.09114,0.0801 -0.106045,-0.033 -0.03312,-0.25127 z m 129.909656,-3.89236 c -1.526096,-5.53667 -2.209503,-8.32135 -2.075169,-8.45569 0.06376,-0.0638 0.264373,0.51557 0.4458,1.28741 0.181427,0.77184 0.909774,3.536 1.618548,6.14257 0.708774,2.60657 1.243828,4.78407 1.189008,4.83889 -0.05482,0.0548 -0.585004,-1.66111 -1.178187,-3.81318 z m -58.310511,0.89802 c -0.26556,-4.13799 -3.321855,-7.27543 -7.894133,-8.10371 l -1.443919,-0.26157 1.409482,0.11351 c 2.870742,0.2312 6.048497,2.38983 7.386761,5.01778 0.477309,0.93729 0.716465,1.90352 0.804866,3.25177 0.06917,1.05502 0.06624,1.91823 -0.0065,1.91823 -0.07276,0 -0.188202,-0.8712 -0.256537,-1.93601 z m 78.126807,1.26441 c -0.011,-0.15109 0.38762,-1.46078 0.8859,-2.91041 0.49829,-1.44964 0.91501,-2.51208 0.92604,-2.36098 0.011,0.15109 -0.38761,1.46078 -0.88589,2.91041 -0.49829,1.44964 -0.91501,2.51208 -0.92605,2.36098 z m -158.72111,-0.46004 c -0.362417,-0.43668 -3.009337,-7.37326 -2.867629,-7.51497 0.05514,-0.0551 0.728551,1.57451 1.496471,3.62143 0.792986,2.11374 1.522557,3.67957 1.688639,3.62421 0.160832,-0.0536 1.59102,-3.45301 3.178196,-7.55423 1.587175,-4.10122 2.928165,-7.41436 2.979978,-7.36255 0.133769,0.13377 -5.623287,14.99309 -5.92627,15.29607 -0.157415,0.15742 -0.361362,0.1166 -0.549385,-0.10996 z m -33.055154,-2.17566 c 0.003,-0.58208 0.0571,-0.78905 0.12041,-0.45993 0.0633,0.32912 0.0609,0.80537 -0.005,1.05833 -0.0662,0.25297 -0.118,-0.0163 -0.11507,-0.5984 z m 157.176111,0.60653 c -0.284619,-0.36361 -1.153495,-3.65626 -1.116959,-4.23278 0.01194,-0.18837 0.279829,0.61 0.595313,1.77417 0.315483,1.16417 0.692669,2.09582 0.83819,2.07034 0.323421,-0.0566 0.97825,-2.26199 3.167993,-10.6693 0.928597,-3.56526 1.696148,-6.3037 1.705667,-6.08541 0.01938,0.44446 -2.771192,11.35402 -3.781034,14.7817 -0.712756,2.41928 -0.994382,2.89119 -1.40917,2.36128 z m -99.496941,-0.87111 c 0.0029,-0.58208 0.05712,-0.78905 0.120406,-0.45993 0.06329,0.32911 0.06088,0.80536 -0.0053,1.05833 -0.06622,0.25296 -0.118003,-0.0163 -0.115066,-0.5984 z m 119.188684,0.21125 c -0.77524,-2.63304 -2.569434,-9.55967 -2.556232,-9.86854 0.0093,-0.21828 0.606321,1.80172 1.326642,4.4889 1.2416,4.63176 1.6112,5.60811 1.98244,5.23687 0.0884,-0.0884 0.37734,-0.97348 0.64198,-1.96673 0.26464,-0.99325 0.48238,-1.56779 0.48387,-1.27675 10e-4,0.29104 -0.19632,1.24195 -0.43959,2.11313 -0.44888,1.60748 -1.15639,2.23338 -1.43911,1.27312 z m -154.589696,-1.98005 c -0.254762,-0.77341 -1.278491,-3.59937 -2.274953,-6.2799 -0.996463,-2.68054 -1.767138,-4.91832 -1.71261,-4.97285 0.05453,-0.0545 0.843077,1.90051 1.752332,4.34454 2.129492,5.72395 2.933684,8.07917 2.803198,8.20965 -0.05762,0.0576 -0.313206,-0.52802 -0.567967,-1.30144 z m -22.063298,0.57818 c -0.0463,-0.742 1.14232,-9.8835 1.24505,-9.57531 0.0562,0.16861 -0.15193,2.36226 -0.46253,4.87479 -0.54703,4.42518 -0.73079,5.52902 -0.78252,4.70052 z m 57.199727,-0.92605 c 0.0029,-0.58208 0.05712,-0.78905 0.120405,-0.45993 0.06329,0.32912 0.06088,0.80537 -0.0053,1.05833 -0.06622,0.25297 -0.118003,-0.0163 -0.115066,-0.5984 z m 8.410967,-3.4506 c -0.182455,-1.53954 -0.277167,-2.85374 -0.21047,-2.92044 0.0667,-0.0667 0.270549,1.13836 0.453005,2.6779 0.182455,1.53954 0.277167,2.85374 0.21047,2.92044 -0.0667,0.0667 -0.270549,-1.13836 -0.453005,-2.6779 z m 118.02364,2.52456 c -0.01,-0.21828 0.26649,-1.46843 0.61352,-2.77812 0.34703,-1.30969 0.63881,-2.20266 0.64841,-1.98438 0.01,0.21828 -0.2665,1.46844 -0.61353,2.77813 -0.34703,1.30969 -0.63881,2.20265 -0.6484,1.98437 z m 9.77947,0.13255 c -0.0297,-0.38561 2.66196,-8.38632 2.78129,-8.26699 0.0555,0.0555 -0.54305,1.99771 -1.33003,4.31609 -0.78698,2.31837 -1.44004,4.09628 -1.45126,3.9509 z m -136.478661,-1.32317 c 0.0029,-0.58209 0.05712,-0.78906 0.120406,-0.45994 0.06329,0.32912 0.06088,0.80537 -0.0053,1.05834 -0.06622,0.25296 -0.118003,-0.0163 -0.115067,-0.5984 z m 97.709418,-4.11364 c -0.548563,-2.48313 -0.947467,-4.56469 -0.886455,-4.6257 0.06101,-0.061 0.559136,1.92133 1.106941,4.40521 0.547805,2.48388 0.946709,4.56544 0.886454,4.6257 -0.06026,0.0603 -0.558378,-1.92209 -1.10694,-4.40521 z m 23.931043,4.35617 c -0.003,-0.54012 1.68496,-7.77504 1.78919,-7.67081 0.0618,0.0618 -0.26928,1.81801 -0.73579,3.90264 -0.77108,3.44562 -1.0502,4.44406 -1.0534,3.76817 z m -151.467729,-8.11293 c -4.927124,-12.68777 -9.236628,-22.25558 -11.264047,-25.00805 -0.457158,-0.62065 -1.385129,-1.45409 -2.062157,-1.85209 -1.119565,-0.65814 -1.470393,-0.72363 -3.876793,-0.72363 -2.346676,0 -2.743511,0.0697 -3.509721,0.61617 -0.475137,0.3389 -1.048807,0.97378 -1.274827,1.41084 -0.23578,0.45595 -0.71019,3.18186 -1.11301,6.39529 -0.38614,3.08034 -0.74021,5.41158 -0.78683,5.18054 -0.16984,-0.84187 1.24616,-10.82339 1.64479,-11.59426 0.22486,-0.43483 0.84617,-1.12418 1.38069,-1.53188 0.829592,-0.63277 1.266751,-0.75469 2.986367,-0.83287 5.54471,-0.25209 7.142649,1.60257 12.859623,14.92568 2.392797,5.57628 7.852349,19.45425 7.709459,19.59714 -0.05434,0.0543 -1.266436,-2.90795 -2.693544,-6.58288 z m 29.562685,5.75373 c 0.0029,-0.58208 0.05712,-0.78905 0.120406,-0.45993 0.06329,0.32911 0.06088,0.80536 -0.0053,1.05833 -0.06622,0.25296 -0.118003,-0.0163 -0.115066,-0.5984 z m 34.064526,-0.95186 c -1.441735,-0.84511 -1.954724,-1.72822 -2.056149,-3.53964 -0.07026,-1.25491 0.02584,-1.77732 0.451867,-2.45623 0.565741,-0.90156 1.982419,-1.91727 2.662616,-1.90901 0.218281,0.003 -0.09074,0.22627 -0.686716,0.49693 -2.766001,1.25619 -3.036648,5.40015 -0.462968,7.08866 0.633024,0.41531 1.555172,0.49581 7.090236,0.61895 l 6.362573,0.14154 -6.217709,0.0508 c -5.843193,0.0478 -6.273487,0.0181 -7.14375,-0.49202 z m 109.881108,-0.41446 c -0.15962,-0.41596 2.2357,-8.18111 2.45575,-7.96106 0.0569,0.0569 -0.44207,1.73562 -1.1089,3.73043 -0.66682,1.99481 -1.14416,3.80476 -1.06075,4.02212 0.1289,0.3359 0.95656,0.38445 5.51566,0.32356 5.85314,-0.0782 5.48531,0.0409 5.12663,-1.65915 -0.12752,-0.60441 -0.0719,-0.54769 0.23316,0.23776 0.66558,1.71371 0.56018,1.74662 -5.59273,1.74662 -4.79242,0 -5.41888,-0.0495 -5.56882,-0.44028 z m -144.210217,-0.75035 c 0.0029,-0.58208 0.05712,-0.78905 0.120405,-0.45993 0.06329,0.32912 0.06088,0.80537 -0.0053,1.05833 -0.06622,0.25297 -0.118003,-0.0163 -0.115066,-0.5984 z m 112.560253,-1.25301 c -0.244004,-0.97139 -0.432896,-1.92028 -0.419761,-2.10865 0.01314,-0.18838 0.248394,0.49094 0.522796,1.50958 0.274402,1.01865 0.463294,1.96754 0.419761,2.10865 -0.04353,0.14112 -0.278792,-0.5382 -0.522796,-1.50958 z m 15.960524,1.23571 c 0,-0.55239 1.43061,-6.71007 1.53475,-6.60593 0.0628,0.0628 -0.21007,1.5787 -0.60635,3.3687 -0.65129,2.94184 -0.9284,3.9081 -0.9284,3.23723 z m -120.241099,-4.22806 c -0.257883,-2.11895 -0.414758,-3.90677 -0.348612,-3.97291 0.06614,-0.0662 0.331259,1.61343 0.589142,3.73238 0.257882,2.11896 0.414758,3.90677 0.348612,3.97292 -0.06615,0.0661 -0.33126,-1.61343 -0.589142,-3.73239 z m -17.871402,3.53713 c 0,-1.15137 6.294196,-15.99586 6.955746,-16.40472 0.437002,-0.27008 0.721201,0.002 0.686479,0.65826 -0.0237,0.44762 -0.05826,0.4742 -0.151692,0.11667 -0.06655,-0.25466 -0.227727,-0.46302 -0.358171,-0.46302 -0.413146,0 -3.538312,7.00127 -5.727973,12.83229 -1.090611,2.90428 -1.404389,3.63277 -1.404389,3.26052 z m 9.32714,-1.40843 c 0.0029,-0.58209 0.05712,-0.78906 0.120406,-0.45994 0.06329,0.32912 0.06088,0.80537 -0.0053,1.05834 -0.06622,0.25296 -0.118003,-0.0163 -0.115067,-0.5984 z m 117.427176,-1.07723 c -0.181841,-0.81256 -0.279594,-1.5284 -0.217228,-1.59076 0.06237,-0.0624 0.262172,0.55142 0.444013,1.36397 0.181841,0.81255 0.279593,1.52839 0.217227,1.59076 -0.06237,0.0624 -0.262171,-0.55142 -0.444012,-1.36397 z m -172.195929,-0.51027 c 0.003,-0.58209 0.0571,-0.78906 0.12041,-0.45994 0.0633,0.32912 0.0609,0.80537 -0.005,1.05834 -0.0662,0.25296 -0.118,-0.0163 -0.11507,-0.5984 z m 147.188604,-0.27928 c -0.09961,-0.53098 -0.128196,-1.01834 -0.06352,-1.08301 0.06468,-0.0647 0.199094,0.31684 0.298706,0.84782 0.09961,0.53098 0.128196,1.01833 0.06352,1.08301 -0.06468,0.0647 -0.199093,-0.31685 -0.298706,-0.84782 z m 85.73438,-0.0795 c -0.9383,-1.48637 -4.34089,-8.36168 -6.10769,-12.34126 -0.83988,-1.89177 -1.77017,-3.70748 -2.06732,-4.0349 -1.06693,-1.17563 -3.85467,-0.40708 -3.9085,1.07754 -0.0121,0.3333 -0.0808,0.42572 -0.16303,0.21929 -0.0782,-0.19625 0.004,-0.62959 0.18225,-0.96296 0.70142,-1.31062 3.06617,-1.63378 4.0492,-0.55336 0.32048,0.35223 1.22659,2.1084 2.01358,3.90261 1.64835,3.75793 5.88166,12.26959 6.49136,13.05178 0.41015,0.52619 0.41535,0.52577 0.9251,-0.0753 0.72074,-0.8498 3.33199,-6.03703 5.84111,-11.60334 1.2227,-2.71247 2.41447,-4.97918 2.79757,-5.32089 0.77945,-0.69523 2.04735,-0.76696 3.01917,-0.17079 0.41866,0.25683 0.46722,0.33479 0.13229,0.21239 -1.21698,-0.44475 -2.39903,-0.41761 -2.97558,0.0683 -0.31674,0.26696 -1.51615,2.56898 -2.66536,5.11559 -3.56553,7.90115 -5.96533,12.43542 -6.58155,12.43542 -0.18622,0 -0.62839,-0.45909 -0.9826,-1.0202 z m -178.418814,-0.17043 c 0.0029,-0.58208 0.05712,-0.78905 0.120406,-0.45993 0.06329,0.32911 0.06088,0.80536 -0.0053,1.05833 -0.06622,0.25296 -0.118003,-0.0163 -0.115066,-0.5984 z m 154.044874,-1.23999 c -1.23659,-3.75538 -3.32366,-8.94647 -3.59692,-8.94647 -0.29441,0 -1.11779,1.80018 -2.21145,4.83499 -0.40768,1.13128 -0.79033,2.00777 -0.85034,1.94776 -0.17346,-0.17346 2.31868,-6.60903 2.72466,-7.03599 0.22961,-0.24148 0.45347,-0.29091 0.5991,-0.13229 0.51645,0.56252 4.39063,11.2002 4.16223,11.42861 -0.0566,0.0566 -0.42892,-0.88683 -0.82728,-2.09661 z m -29.4401,1.50457 c 0,-0.29104 0.0953,-0.82682 0.21184,-1.19062 0.16773,-0.52377 0.21183,-0.5513 0.21183,-0.13229 0,0.29104 -0.0953,0.82682 -0.21183,1.19062 -0.16774,0.52377 -0.21184,0.55131 -0.21184,0.13229 z m -141.075664,-0.74599 c 0,-0.24912 2.977638,-7.67827 4.632149,-11.55713 3.249646,-7.61852 5.223988,-11.41537 6.85675,-13.18621 0.795907,-0.86321 2.474489,-1.89504 3.082857,-1.89504 0.167935,0 -0.332857,0.3334 -1.112872,0.74088 -0.886415,0.46307 -1.794559,1.23197 -2.42187,2.05052 -1.7199,2.24424 -5.223121,9.75677 -9.185597,19.69818 -1.540874,3.86588 -1.851417,4.56177 -1.851417,4.1488 z m -37.81842,-0.44463 c -0.0463,-0.742 1.14232,-9.8835 1.24505,-9.5753 0.0562,0.1686 -0.15193,2.36225 -0.46253,4.87478 -0.54703,4.42518 -0.73079,5.52902 -0.78252,4.70052 z m 151.895613,-0.26458 c 0,-0.36381 0.06005,-0.51263 0.133452,-0.33073 0.0734,0.1819 0.0734,0.47955 0,0.66146 -0.0734,0.1819 -0.133452,0.0331 -0.133452,-0.33073 z m 19.419797,-0.67616 c -0.09961,-0.53098 -0.128196,-1.01833 -0.06352,-1.08301 0.06468,-0.0647 0.199094,0.31685 0.298706,0.84782 0.09961,0.53098 0.128196,1.01833 0.06352,1.08301 -0.06468,0.0647 -0.199093,-0.31684 -0.298706,-0.84782 z m -117.290683,-0.24989 c 0.0029,-0.58208 0.05712,-0.78905 0.120405,-0.45993 0.06329,0.32912 0.06088,0.80537 -0.0053,1.05833 -0.06622,0.25297 -0.118003,-0.0163 -0.115066,-0.5984 z m 92.290498,-0.67909 c -0.175435,-0.89172 -0.267378,-1.6729 -0.204319,-1.73596 0.06306,-0.0631 0.25819,0.61493 0.433625,1.50665 0.175435,0.89172 0.267378,1.6729 0.204319,1.73596 -0.06306,0.0631 -0.25819,-0.61493 -0.433625,-1.50665 z m 33.053809,0.92163 c -0.003,-0.55614 2.22519,-10.67471 2.32833,-10.57158 0.0619,0.0619 -0.39002,2.47082 -1.00431,5.35311 -1.00529,4.71685 -1.31956,5.95552 -1.32402,5.21847 z m -29.058668,-6.91913 c -1.220066,-6.1211 -1.428263,-6.87794 -2.039088,-7.41247 -1.208788,-1.0578 -3.58542,-0.53065 -3.937824,0.87344 -0.103732,0.4133 0.21257,2.61808 0.782895,5.45715 0.526321,2.62002 0.905997,4.81462 0.843725,4.87689 -0.234008,0.23401 -2.057283,-9.67232 -1.89743,-10.30923 0.561086,-2.23554 4.414615,-2.31785 5.108147,-0.1091 0.409469,1.30407 2.739322,13.19954 2.610501,13.32836 -0.06167,0.0617 -0.723585,-2.9556 -1.470926,-6.70504 z m -54.680488,6.01171 c 6.113368,-0.20351 6.976951,-0.45274 9.174257,-2.64777 1.05194,-1.05084 1.627576,-1.88829 1.923066,-2.79773 0.313409,-0.96458 0.385766,-1.0649 0.281718,-0.39058 -0.204746,1.32692 -1.615991,3.36007 -2.987055,4.30339 -2.170467,1.49332 -3.762025,1.80709 -8.87858,1.75036 l -4.540489,-0.0503 z m 89.296876,-0.14772 c 0,-0.57189 1.6912,-8.30001 1.79388,-8.19733 0.11943,0.11943 -1.50622,8.13542 -1.68861,8.32643 -0.0579,0.0606 -0.10527,0.003 -0.10527,-0.1291 z m -131.166611,-1.30406 c 0.0029,-0.58209 0.05712,-0.78906 0.120406,-0.45994 0.06329,0.32912 0.06088,0.80537 -0.0053,1.05834 -0.06622,0.25296 -0.118003,-0.0163 -0.115067,-0.5984 z m 116.371396,-3.06416 c -0.477134,-2.19075 -0.817638,-4.03306 -0.756677,-4.09402 0.06096,-0.061 0.501221,1.68159 0.978355,3.87234 0.477134,2.19075 0.817638,4.03306 0.756677,4.09402 -0.06096,0.061 -0.501221,-1.68159 -0.978355,-3.87234 z m -9.516527,2.93187 c -0.0098,-0.21829 0.206818,-1.23032 0.481401,-2.24896 0.274582,-1.01865 0.507269,-1.67349 0.517081,-1.45521 0.0098,0.21828 -0.206818,1.23031 -0.4814,2.24896 -0.274583,1.01864 -0.50727,1.67349 -0.517082,1.45521 z m -98.575191,-3.84849 c -0.257882,-2.11896 -0.414758,-3.90677 -0.348612,-3.97291 0.06615,-0.0661 0.33126,1.61342 0.589143,3.73238 0.257882,2.11896 0.414757,3.90677 0.348611,3.97292 -0.06615,0.0661 -0.331259,-1.61343 -0.589142,-3.73239 z m -8.544261,1.86411 c 0.0029,-0.58208 0.05712,-0.78905 0.120406,-0.45993 0.06329,0.32911 0.06088,0.80536 -0.0053,1.05833 -0.06622,0.25296 -0.118003,-0.0163 -0.115066,-0.5984 z m 61.502855,-1.32292 c 0.08409,-0.7276 0.195644,-1.37252 0.247904,-1.43316 0.197794,-0.22948 0.04756,1.72142 -0.171483,2.22691 -0.147524,0.34044 -0.17478,0.0574 -0.07642,-0.79375 z m -61.767438,-0.79375 c 0.0029,-0.58208 0.05712,-0.78905 0.120405,-0.45993 0.06329,0.32912 0.06088,0.80537 -0.0053,1.05833 -0.06622,0.25297 -0.118003,-0.0163 -0.115066,-0.5984 z m 108.442368,-0.39687 c -0.0098,-0.21828 0.206818,-1.23031 0.481401,-2.24896 0.274582,-1.01864 0.507269,-1.67349 0.517082,-1.45521 0.0098,0.21828 -0.206818,1.23032 -0.481401,2.24896 -0.274583,1.01865 -0.507269,1.67349 -0.517082,1.45521 z m -46.440955,-2.53689 c -0.100759,-1.11191 -0.128454,-2.0764 -0.06154,-2.14331 0.06691,-0.0669 0.206663,0.78552 0.310564,1.89429 0.1039,1.10878 0.131595,2.07327 0.06154,2.14332 -0.07005,0.0701 -0.209805,-0.78238 -0.310564,-1.8943 z m -62.265997,0.8171 c 0.0029,-0.58209 0.05712,-0.78906 0.120406,-0.45994 0.06329,0.32912 0.06088,0.80537 -0.0053,1.05834 -0.06622,0.25296 -0.118003,-0.0163 -0.115067,-0.5984 z m 54.244923,-0.13229 c 0,-0.65485 0.0516,-0.92274 0.114662,-0.59532 0.06306,0.32743 0.06306,0.86321 0,1.19063 -0.06306,0.32742 -0.114662,0.0595 -0.114662,-0.59531 z m -105.838676,-1.19063 c 0.003,-0.58208 0.0571,-0.78905 0.12041,-0.45994 0.0633,0.32912 0.0609,0.80537 -0.005,1.05834 -0.0662,0.25296 -0.118,-0.0163 -0.11507,-0.5984 z m 185.584784,-0.79375 c 0.0876,-0.7276 0.25748,-1.56104 0.37745,-1.85208 0.26666,-0.6469 -0.0181,1.56001 -0.32435,2.51354 -0.13079,0.40727 -0.1512,0.15308 -0.0531,-0.66146 z m -18.017709,0.009 c -0.297331,-1.57625 -0.885623,-2.52134 -1.823314,-2.92917 -0.534931,-0.23266 -0.66621,-0.37033 -0.3594,-0.37691 1.087872,-0.0233 2.875864,2.886 2.485474,4.04421 -0.05767,0.17108 -0.193909,-0.16107 -0.30276,-0.73813 z m -107.958227,-3.72533 c -0.257882,-2.11896 -0.414758,-3.90677 -0.348612,-3.97292 0.06615,-0.0661 0.33126,1.61343 0.589142,3.73238 0.257883,2.11896 0.414758,3.90677 0.348612,3.97292 -0.06615,0.0661 -0.33126,-1.61343 -0.589142,-3.73238 z m 120.940516,2.52556 c 0.30594,-2.32156 1.09935,-3.175 2.95167,-3.175 1.16016,0 2.44484,0.81865 2.41756,1.54056 -0.0123,0.32595 -0.0786,0.29031 -0.24966,-0.1342 -0.31324,-0.77743 -1.06695,-1.14177 -2.36201,-1.14177 -1.22668,0 -2.02441,0.62058 -2.28709,1.7792 -0.0916,0.40389 -0.27018,1.09153 -0.39693,1.52809 -0.17963,0.61875 -0.19585,0.53125 -0.0735,-0.39688 z m -19.20348,0.58218 c -0.02851,-0.58456 0.719161,-1.80658 1.358768,-2.22082 0.702984,-0.45529 2.451921,-0.93164 1.799461,-0.49011 -0.218281,0.14771 -0.582959,0.27039 -0.810395,0.27262 -0.514983,0.005 -1.716983,1.23764 -2.068079,2.12072 -0.144641,0.3638 -0.270531,0.50671 -0.279755,0.31759 z m -102.53813,-9.2668 c -0.336918,-3.35488 -1.396483,-4.32213 -5.018305,-4.58107 l -2.394711,-0.17121 2.428441,0.0377 c 2.675488,0.0416 3.381882,0.35221 4.485207,1.97242 0.522834,0.76777 1.134937,4.12783 0.810983,4.45178 -0.06993,0.0699 -0.210161,-0.6994 -0.311615,-1.70964 z"
         id="path11" /><path
         style="fill:#fe0101"
         d="m -71.637534,-90.083391 c -0.13825,-0.120989 -0.78714,-0.367292 -1.44198,-0.547339 -2.70096,-0.742619 -5.59409,-3.669679 -6.39345,-6.468414 -0.17258,-0.604253 -0.43849,-1.261824 -0.59092,-1.46127 -0.3796,-0.49672 -0.31975,-6.065126 0.0694,-6.454256 0.16522,-0.16522 0.3004,-0.66808 0.3004,-1.11747 0,-1.43351 1.05254,-3.10851 2.37117,-3.77346 0.6493,-0.32742 1.5468,-0.59531 1.99446,-0.59531 1.31984,0 3.09697,1.05794 3.77781,2.24896 0.5701,0.9973 0.59515,1.24307 0.43444,4.2621 l -0.17055,3.20377 0.80171,0.89727 0.8017,0.897275 55.064591,0.068 c 60.74287,0.07502 56.137936,0.201616 57.053297,-1.568495 0.354713,-0.68594 0.391927,-1.22499 0.214313,-3.10438 -0.334466,-3.53909 -0.06203,-4.68838 1.380308,-5.82292 1.791496,-1.40919 4.008654,-1.34957 5.671269,0.1525 1.181513,1.06743 1.409738,1.73946 1.834267,5.4012 0.514498,4.43776 -0.391085,7.917895 -2.724806,10.471357 -1.321175,1.445577 -3.909165,3.000976 -4.99409,3.001482 -0.246073,1.15e-4 -0.520991,0.119271 -0.610928,0.264792 -0.20221,0.327183 -114.468801,0.371563 -114.842391,0.0446 z m 6.601633,-102.677919 c -1.320616,-0.59975 -2.228624,-1.80982 -2.418107,-3.22252 -0.07791,-0.58083 0.0075,-2.15283 0.189855,-3.49334 0.82882,-6.09368 3.053843,-10.17246 6.572175,-12.04771 0.867436,-0.46234 1.758928,-0.84061 1.981093,-0.84061 0.222165,0 0.453546,-0.14883 0.51418,-0.33073 0.155486,-0.46646 87.109578,-0.48729 88.066195,-0.0211 0.349452,0.1703 1.318285,0.60942 2.152962,0.97583 2.680649,1.17674 4.749363,3.7438 6.039939,7.49493 0.65346,1.89931 1.392825,6.80263 1.235812,8.19565 -0.340624,3.02201 -3.721164,4.70977 -6.397352,3.19393 -1.427533,-0.80858 -1.970076,-1.86898 -2.430009,-4.74947 -0.512889,-3.21215 -1.310443,-4.95782 -2.643772,-5.78665 l -1.026379,-0.63803 -39.422917,-0.0805 c -21.682604,-0.0443 -40.162843,-0.006 -41.067196,0.0862 -3.07981,0.31226 -4.289591,1.84878 -4.946497,6.28247 -0.454338,3.06649 -1.041446,4.16843 -2.630861,4.93786 -1.390774,0.67326 -2.358316,0.6845 -3.769121,0.0438 z"
         id="path10" /><path
         style="fill:#2d2d2c"
         d="m -12.152578,-121.85696 c -1.904784,-0.48234 -3.271221,-2.06628 -3.213667,-3.7252 l 0.03213,-0.92604 0.179813,1.05833 c 0.245384,1.44427 0.6517,2.1081 1.668835,2.7265 1.972574,1.1993 4.646738,0.95213 5.907336,-0.54601 0.703541,-0.83611 0.714523,-0.90479 0.580891,-3.63302 -0.08826,-1.80194 -0.06138,-2.36169 0.07636,-1.59018 0.350181,1.96148 0.28376,4.19778 -0.149569,5.03575 -0.699704,1.35308 -3.087842,2.10487 -5.082123,1.59987 z m -63.077256,-0.46652 c -1.60042,-0.99325 -1.87743,-2.73475 -1.14965,-7.22743 0.2079,-1.28335 0.3085,-1.62415 0.23431,-0.79375 -0.0715,0.80036 -0.20208,2.55126 -0.29015,3.89089 l -0.16013,2.43568 0.93776,0.93776 c 0.88638,0.88637 1.03439,0.93775 2.7014,0.93775 0.97001,0 2.02371,-0.13361 2.34157,-0.29691 0.88794,-0.45619 2.03072,-1.60658 2.054011,-2.06769 0.01441,-0.28521 0.06317,-0.30827 0.157167,-0.0743 0.219242,0.54571 -0.631538,1.5958 -1.758888,2.17093 -1.32158,0.67422 -4.04592,0.72104 -5.0674,0.0871 z m 76.212928,-0.15612 c -0.491,-0.33089 -1.163451,-1.00334 -1.494336,-1.49434 l -0.601609,-0.89272 v -26.64467 -26.64466 l 0.601609,-0.89273 c 0.330885,-0.491 1.003336,-1.16345 1.494336,-1.49433 l 0.892727,-0.60161 12.991601,0.0613 12.991602,0.0613 -13.108812,0.13718 c -14.540882,0.15216 -13.945753,0.0757 -15.080955,1.93749 -0.501978,0.82327 -0.515547,1.54536 -0.515547,27.43614 0,25.89078 0.01357,26.61288 0.515547,27.43615 1.147248,1.88154 0.29222,1.78525 17.19769,1.93686 l 15.22541,0.13655 -15.108268,0.0619 -15.108268,0.0619 z m 31.439993,0.16179 c 0.181901,-0.0734 0.479557,-0.0734 0.661458,0 0.181901,0.0734 0.03307,0.13346 -0.330729,0.13346 -0.363802,0 -0.51263,-0.0601 -0.330729,-0.13346 z m 2.378159,-0.59812 c 2.644189,-0.98298 4.679449,-2.26708 6.542671,-4.12793 2.094535,-2.09187 3.321577,-4.00642 4.265327,-6.65516 0.358381,-1.00584 0.57308,-1.39501 0.484915,-0.87897 -0.08702,0.50932 -0.635415,1.9251 -1.218659,3.14618 -1.505037,3.15094 -4.471338,6.1302 -7.623768,7.65708 -1.236927,0.5991 -2.606145,1.15335 -3.042708,1.23166 -0.436562,0.0783 -0.170062,-0.0895 0.592222,-0.37286 z m -78.045277,-0.81301 c -1.138765,-0.34289 -2.523119,-1.29 -3.128768,-2.14055 -0.305158,-0.42856 -1.305891,-3.00977 -2.223852,-5.73604 -4.441702,-13.19146 -9.243472,-26.06983 -11.71332,-31.41517 -1.97389,-4.27197 -2.408527,-4.76635 -2.791298,-3.175 -0.09521,0.39582 -0.135015,0.34373 -0.157973,-0.20674 -0.03577,-0.85762 0.619292,-1.24105 1.173471,-0.68687 1.455215,1.45522 9.300747,21.86356 14.652115,38.11411 0.717268,2.17813 1.01482,2.71841 1.994403,3.62136 1.084557,0.99971 2.132683,1.44779 3.977444,1.70038 0.74179,0.10157 0.73313,0.10979 -0.132292,0.12558 -0.509323,0.009 -1.251791,-0.0812 -1.64993,-0.20106 z m 3.977425,-0.68536 c 0.755184,-0.37633 1.621247,-1.03277 1.924585,-1.45877 0.303337,-0.426 1.242973,-2.82677 2.088079,-5.33505 2.13894,-6.34838 7.735083,-21.90694 9.253613,-25.72717 0.69413,-1.74625 2.009368,-4.81211 2.922752,-6.81302 1.285587,-2.81628 1.774318,-3.63802 2.163724,-3.63802 0.276664,0 0.556944,0.14883 0.622844,0.33073 0.208853,0.5765 3.589394,28.06943 3.503992,28.49693 -0.04492,0.22484 -0.886029,-6.01826 -1.86914,-13.87357 -0.98311,-7.8553 -1.874121,-14.36901 -1.980024,-14.47492 -0.105904,-0.1059 -0.330005,-0.1076 -0.498003,-0.004 -0.373922,0.2311 -2.838788,5.58023 -4.578645,9.93635 -1.388844,3.47728 -8.309292,22.75763 -9.92371,27.64743 -1.062635,3.21854 -1.866273,4.43378 -3.419471,5.17082 -1.495447,0.70963 -1.685398,0.47696 -0.210596,-0.25797 z m -28.983688,-1.56474 c 0.0029,-0.58208 0.05712,-0.78905 0.120406,-0.45993 0.06329,0.32912 0.06088,0.80537 -0.0053,1.05833 -0.06622,0.25297 -0.118003,-0.0163 -0.115066,-0.5984 z m 52.657423,-1.71979 c 0,-0.65484 0.0516,-0.92273 0.114662,-0.59531 0.06306,0.32742 0.06306,0.8632 0,1.19063 -0.06306,0.32742 -0.114662,0.0595 -0.114662,-0.59532 z m -52.3875,-0.52916 c 0,-0.65485 0.0516,-0.92274 0.114662,-0.59532 0.06306,0.32743 0.06306,0.86321 0,1.19063 -0.06306,0.32742 -0.114662,0.0595 -0.114662,-0.59531 z m 51.933261,-2.92512 c -0.103134,-1.1823 -0.131864,-2.20529 -0.06385,-2.27331 0.06802,-0.068 0.209196,0.84253 0.31373,2.02343 0.104534,1.1809 0.133264,2.20389 0.06385,2.2733 -0.06942,0.0694 -0.210597,-0.84112 -0.31373,-2.02342 z m -51.684747,0.80845 c -0.0058,-0.50932 0.142895,-1.9976 0.330379,-3.30729 0.187484,-1.30969 0.345607,-1.96453 0.351383,-1.45521 0.0058,0.50932 -0.142895,1.9976 -0.330379,3.30729 -0.187484,1.30969 -0.345606,1.96453 -0.351383,1.45521 z m 59.884158,-3.31932 c -0.257883,-2.11896 -0.414758,-3.90677 -0.348612,-3.97291 0.06614,-0.0661 0.331259,1.61342 0.589142,3.73238 0.257882,2.11896 0.414758,3.90677 0.348612,3.97292 -0.06615,0.0661 -0.33126,-1.61343 -0.589142,-3.73239 z m 15.267661,3.40867 c -0.260734,-0.1052 -0.33073,-4.63453 -0.33073,-21.40105 0,-20.75586 0.01232,-21.27419 0.511773,-21.54149 0.330047,-0.17664 3.641818,-0.25284 9.326562,-0.2146 l 8.81479,0.0593 -9.128125,0.14786 c -5.020468,0.0813 -9.158599,0.17371 -9.195845,0.20529 -0.03725,0.0316 -0.03725,9.61219 0,21.29024 l 0.06772,21.23281 12.038542,0.13635 12.038542,0.13634 -11.90625,0.0412 c -6.548438,0.0227 -12.055078,-0.0189 -12.236979,-0.0923 z m 25.650752,-0.72193 c 2.353373,-0.96791 3.985289,-2.5326 5.043629,-4.83587 0.892678,-1.94274 0.838454,-5.29398 -0.115039,-7.10988 -1.377064,-2.62258 -4.314734,-4.6292 -7.530912,-5.1441 l -1.551035,-0.24832 1.565572,0.10728 c 3.069766,0.21035 6.242309,2.34793 7.748243,5.22058 0.632332,1.20621 0.733438,1.70677 0.73664,3.64706 0.0031,1.88194 -0.110069,2.49161 -0.693509,3.73592 -0.383471,0.81782 -1.137564,1.97436 -1.67576,2.57008 -0.954663,1.0567 -3.773751,2.6961 -4.614591,2.68355 -0.231419,-0.004 0.257624,-0.28529 1.086762,-0.6263 z m -108.993928,-1.88096 c 0.003,-0.58209 0.0571,-0.78906 0.12041,-0.45994 0.0633,0.32912 0.0609,0.80537 -0.005,1.05834 -0.0662,0.25296 -0.118,-0.0163 -0.11507,-0.5984 z m 192.717924,-0.1515 c -0.38343,-0.3016 -0.6896,-0.74808 -0.68037,-0.99218 0.0123,-0.32596 0.0786,-0.29032 0.24966,0.13419 0.49558,1.23002 2.44055,1.54535 3.37064,0.54647 0.30487,-0.32742 0.94384,-1.87218 1.41993,-3.43279 0.47608,-1.56062 0.91539,-2.7877 0.97624,-2.72685 0.0609,0.0609 -0.32097,1.48099 -0.84847,3.15589 -1.03542,3.28758 -1.4766,3.86364 -2.95901,3.86364 -0.45732,0 -1.1452,-0.24676 -1.52862,-0.54837 z m -34.206643,-0.22343 c 1.288558,-0.13723 1.670836,-0.30255 2.282437,-0.98705 1.031909,-1.1549 2.355376,-5.30598 4.880185,-15.30677 1.896074,-7.51037 2.196152,-8.46667 2.656766,-8.46667 0.583459,0 0.499447,-0.24942 1.863127,5.53147 0.511698,2.16919 0.88147,3.99286 0.821716,4.05262 -0.08559,0.0856 -1.285327,-4.69734 -2.155183,-8.5919 -0.208452,-0.93329 -0.866585,-0.70773 -1.157955,0.39687 -0.143945,0.54571 -1.045786,4.14735 -2.00409,8.00365 -1.762087,7.09079 -3.238819,12.01548 -4.143815,13.81903 -0.621491,1.23855 -1.690102,1.80245 -3.321071,1.75249 l -1.26991,-0.0389 z m 17.689703,-0.15642 c -0.652509,-0.28349 -1.024713,-0.72867 -1.484538,-1.77559 -0.648131,-1.47564 -3.463853,-11.5412 -3.279959,-11.72509 0.0592,-0.0592 0.743402,2.24035 1.520446,5.11011 2.064519,7.62464 2.406117,8.2375 4.715071,8.45937 2.63262,0.25296 3.56511,-0.63782 4.84117,-4.62464 0.33663,-1.05171 0.6613,-1.86293 0.72152,-1.80272 0.17991,0.17991 -1.22767,4.1749 -1.80392,5.11989 -0.91851,1.50624 -3.31014,2.07269 -5.22979,1.23867 z m 42.69574,-0.19626 c -0.4904,-0.43558 -1.09904,-1.86975 -2.26836,-5.34506 -0.87897,-2.61237 -1.74486,-4.84297 -1.9242,-4.95689 -0.17935,-0.11392 -3.56204,-0.20895 -7.51709,-0.21118 -5.80133,-0.003 -7.26229,0.0673 -7.55994,0.36489 -0.20292,0.20292 -0.58324,1.16063 -0.84516,2.12825 -0.26193,0.96762 -0.52817,1.70736 -0.59166,1.64387 -0.174,-0.17401 0.71014,-3.12971 1.13979,-3.81033 0.3753,-0.59453 0.38567,-0.59532 7.87792,-0.59532 5.98667,0 7.5622,0.0724 7.79948,0.35829 0.16355,0.19706 1.01483,2.48901 1.89174,5.09323 1.66982,4.95898 2.09462,5.66098 3.42559,5.66098 1.02952,0 2.12418,-0.93294 2.11806,-1.80514 -0.003,-0.38962 -0.77292,-3.02392 -1.71152,-5.854 -0.9386,-2.83008 -1.66122,-5.19092 -1.60582,-5.24632 0.15213,-0.15214 3.5869,10.38295 3.5869,11.0017 0,0.89354 -0.29096,1.37465 -1.07726,1.78126 -1.06162,0.54898 -1.96314,0.48043 -2.73847,-0.20823 z m 15.96621,-0.17808 -0.7734,-0.7734 v -6.49234 c 0,-6.01388 -0.0367,-6.52722 -0.49821,-6.96566 -0.84186,-0.79982 -2.83181,-4.06478 -4.90625,-8.04979 -3.2667,-6.27534 -6.19015,-12.99335 -5.45711,-12.54031 0.11544,0.0713 0.28216,0.49109 0.3705,0.93277 0.24209,1.21045 4.37075,9.89346 6.69574,14.08188 1.12807,2.03217 2.50303,4.20836 3.05547,4.83596 l 1.00444,1.14111 v 6.51987 6.51986 l 0.64943,0.64943 c 0.40938,0.40937 0.95173,0.64943 1.46724,0.64943 0.51551,0 1.05786,-0.24006 1.46723,-0.64943 l 0.64944,-0.64943 v -6.65731 -6.65731 l 0.88852,-1.22607 c 2.12338,-2.93007 6.60159,-11.48034 8.64319,-16.50251 0.33942,-0.83496 0.6674,-1.46785 0.72884,-1.40641 0.14869,0.14869 -2.27373,5.59987 -4.19593,9.44212 -1.79664,3.59126 -3.97663,7.36387 -5.04692,8.73401 l -0.75312,0.96412 v 6.663 6.66301 l -0.7734,0.7734 c -0.52784,0.52784 -1.03834,0.7734 -1.60785,0.7734 -0.56952,0 -1.08001,-0.24556 -1.60785,-0.7734 z m -78.893495,0.222 c -0.255685,-0.1489 -0.701217,-0.73399 -0.990071,-1.30019 -0.580947,-1.13875 -2.700347,-8.1721 -2.575452,-8.54678 0.04334,-0.13002 0.528268,1.34658 1.077617,3.28133 1.27346,4.48501 1.921205,5.98298 2.791721,6.45611 0.379629,0.20634 0.571172,0.3763 0.425651,0.3777 -0.145521,0.001 -0.473781,-0.11927 -0.729466,-0.26817 z m -96.629419,-2.23451 c -0.103901,-1.10877 -0.132881,-2.07198 -0.0644,-2.14046 0.06848,-0.0685 0.209519,0.78267 0.31342,1.89144 0.1039,1.10877 0.13288,2.07198 0.0644,2.14046 -0.06848,0.0685 -0.20952,-0.78267 -0.31342,-1.89144 z m -59.12516,1.46299 c -0.0463,-0.742 1.14232,-9.8835 1.24505,-9.5753 0.0562,0.1686 -0.15193,2.36225 -0.46253,4.87478 -0.54703,4.42518 -0.73079,5.52902 -0.78252,4.70052 z m 191.680864,-0.92604 c 0.21102,-1.17386 2.31359,-7.82154 2.43533,-7.69979 0.0917,0.0917 -1.68609,6.05087 -2.33649,7.83208 -0.22087,0.60488 -0.22933,0.59356 -0.0988,-0.13229 z m -69.673364,-1.05834 c 0.0054,-0.43656 0.06469,-0.58312 0.131774,-0.32569 0.06708,0.25743 0.06267,0.61462 -0.0098,0.79375 -0.07248,0.17913 -0.127362,-0.0315 -0.12197,-0.46806 z m -113.226523,-0.79375 c 0.0029,-0.58208 0.05712,-0.78905 0.120405,-0.45993 0.06329,0.32912 0.06088,0.80537 -0.0053,1.05833 -0.06622,0.25297 -0.118003,-0.0163 -0.115066,-0.5984 z m 113.485912,-1.71979 c -0.180721,-5.59259 -2.858363,-10.68483 -7.166069,-13.62815 -1.031883,-0.70506 -1.87615,-1.44922 -1.87615,-1.65371 0,-0.20448 0.419216,-0.88339 0.931592,-1.50867 0.512376,-0.62529 1.284125,-1.77642 1.714999,-2.55807 0.430873,-0.78166 0.785563,-1.32715 0.788199,-1.21221 0.01091,0.47552 -1.179864,2.51992 -2.140492,3.67495 -0.566343,0.68095 -1.029715,1.35511 -1.029715,1.49813 0,0.14302 0.762473,0.80412 1.694384,1.46912 4.579473,3.26784 7.522315,8.97449 7.231756,14.02355 l -0.09293,1.61485 z m -55.464568,-3.05473 c -0.257882,-2.11896 -0.414758,-3.90677 -0.348612,-3.97292 0.06615,-0.0662 0.33126,1.61343 0.589143,3.73239 0.257882,2.11896 0.414757,3.90677 0.348611,3.97291 -0.06614,0.0661 -0.331259,-1.61342 -0.589142,-3.73238 z m -57.797749,3.18702 c -0.05344,-0.83706 2.216428,-18.59647 2.282648,-17.85937 0.03268,0.3638 -0.459939,4.65005 -1.094718,9.525 -0.63478,4.87495 -1.169348,8.62542 -1.18793,8.33437 z m 24.37657,0.0871 c -0.178872,-0.17887 -0.325222,-0.42276 -0.325222,-0.54197 0,-0.38954 -7.430104,-19.52738 -9.582011,-24.68054 -3.052142,-7.30895 -6.017652,-13.25538 -7.375088,-14.78849 -0.630507,-0.7121 -1.627235,-1.51316 -2.214951,-1.78012 -0.587717,-0.26697 -0.883526,-0.48801 -0.657355,-0.4912 0.838187,-0.0118 2.817434,1.54085 3.738115,2.93251 2.681298,4.05292 8.373719,17.3788 15.159023,35.48706 1.30347,3.47864 1.725938,4.17616 2.168569,3.58048 0.136498,-0.18369 1.178556,-2.77477 2.315685,-5.75795 5.718842,-15.00297 8.964186,-22.89044 11.811774,-28.70729 2.2333,-4.56202 3.361788,-6.08373 5.238873,-7.06433 1.214945,-0.63469 1.726729,-0.74082 3.570808,-0.74047 2.521808,4.8e-4 3.684567,0.46224 4.594721,1.82466 0.334529,0.50076 0.587108,1.26262 0.57016,1.71979 -0.02987,0.80563 -0.03391,0.80289 -0.219231,-0.14865 -0.445681,-2.28834 -1.785834,-3.13467 -4.949704,-3.12581 -4.472752,0.0125 -5.880985,1.5247 -10.096759,10.8421 -2.246677,4.96544 -5.506394,13.01291 -9.913451,24.47396 -1.671922,4.34802 -2.896012,7.17266 -3.127841,7.21762 -0.209491,0.0406 -0.527243,-0.0725 -0.706115,-0.25136 z m 124.078128,-1.72478 c -0.329524,-0.62857 -1.729386,-6.69218 -1.579564,-6.842 0.06365,-0.0637 0.4527,1.37267 0.864551,3.19183 0.411851,1.81916 0.908729,3.44027 1.104173,3.60248 0.421653,0.34994 0.806534,-0.46858 1.561136,-3.32006 0.266419,-1.00674 0.52241,-1.7164 0.568868,-1.57702 0.04646,0.13937 -0.246044,1.37845 -0.650006,2.7535 -0.750596,2.55496 -1.325295,3.2287 -1.869158,2.19127 z m 20.126024,-0.14825 c -0.34566,-0.43551 -0.94751,-2.31642 -0.79121,-2.47271 0.0672,-0.0672 0.27312,0.41704 0.45763,1.07606 0.36537,1.30499 0.93057,1.56377 1.31679,0.6029 0.13161,-0.32742 0.24684,-0.43866 0.25606,-0.24719 0.0225,0.46611 -0.47525,1.37167 -0.75389,1.37167 -0.12258,0 -0.341,-0.14883 -0.48538,-0.33073 z m 5.65469,-0.46302 c 0.0924,-0.50933 0.27212,-1.16417 0.39948,-1.45521 0.15897,-0.36327 0.17892,-0.23884 0.0636,0.39687 -0.0924,0.50933 -0.27212,1.16417 -0.39948,1.45521 -0.15897,0.36327 -0.17892,0.23884 -0.0636,-0.39687 z m -4.37776,-1.47726 c 0.0127,-0.30822 0.0754,-0.37092 0.15985,-0.15985 0.0764,0.19099 0.067,0.4192 -0.0209,0.50712 -0.0879,0.0879 -0.15045,-0.0684 -0.13896,-0.34727 z m 0.26458,-1.05833 c 0.0127,-0.30823 0.0754,-0.37092 0.15986,-0.15986 0.0764,0.191 0.067,0.4192 -0.0209,0.50712 -0.0879,0.0879 -0.15046,-0.0684 -0.13897,-0.34726 z m 4.78659,0.15434 c 0.004,-0.21828 0.1031,-0.69453 0.21961,-1.05834 0.17029,-0.53174 0.21336,-0.55768 0.21961,-0.13229 0.004,0.29104 -0.0945,0.76729 -0.21961,1.05833 -0.13931,0.3242 -0.22438,0.37544 -0.21961,0.1323 z m -7.82684,-1.74314 c -0.24346,-0.96922 -0.393624,-1.81124 -0.3337,-1.87116 0.0599,-0.0599 0.30814,0.68405 0.5516,1.65327 0.24345,0.96921 0.39362,1.81123 0.3337,1.87115 -0.0599,0.0599 -0.30814,-0.68405 -0.5516,-1.65326 z m 18.12108,1.61103 c -0.0298,-0.38519 3.19097,-9.97382 3.31014,-9.85465 0.0553,0.0553 -0.66222,2.35474 -1.59454,5.10982 -0.93232,2.75507 -1.70434,4.89025 -1.7156,4.74483 z m -42.836025,-2.57882 c -0.316858,-1.26336 -0.56532,-2.45014 -0.552137,-2.63731 0.01318,-0.18717 0.307742,0.73126 0.654578,2.04094 0.346835,1.30969 0.595297,2.49648 0.552137,2.63731 -0.04316,0.14084 -0.33772,-0.77759 -0.654578,-2.04094 z m 28.027655,1.65259 c -0.0102,-0.21828 0.1471,-0.99218 0.34956,-1.71979 0.20246,-0.7276 0.37646,-1.14432 0.38667,-0.92604 0.0102,0.21828 -0.1471,0.99219 -0.34956,1.71979 -0.20246,0.72761 -0.37646,1.14432 -0.38667,0.92604 z m -178.026624,-0.92604 c 0.003,-0.58208 0.0571,-0.78905 0.12041,-0.45993 0.0633,0.32911 0.0609,0.80536 -0.005,1.05833 -0.0662,0.25296 -0.118,-0.0163 -0.11507,-0.5984 z m 183.066364,-0.13229 c -0.009,-0.21828 0.38235,-2.00422 0.87058,-3.96875 0.48822,-1.96453 0.89685,-3.39328 0.90806,-3.175 0.0112,0.21828 -0.38055,2.00422 -0.87058,3.96875 -0.49003,1.96453 -0.89866,3.39328 -0.90806,3.175 z m -24.369277,-0.41892 c 0.03091,-0.54294 2.857973,-11.06032 2.874423,-10.69358 0.0209,0.46594 -2.572593,10.62047 -2.760482,10.80836 -0.07026,0.0703 -0.121535,0.0186 -0.113941,-0.11478 z m -94.19445,-3.16398 c -0.182455,-1.53954 -0.277167,-2.85374 -0.21047,-2.92043 0.0667,-0.0667 0.27055,1.13835 0.453005,2.6779 0.182456,1.53954 0.277167,2.85373 0.21047,2.92043 -0.0667,0.0667 -0.270549,-1.13836 -0.453005,-2.6779 z m -64.287777,2.25998 c -0.0463,-0.742 1.14232,-9.88349 1.24505,-9.5753 0.0562,0.1686 -0.15193,2.36226 -0.46253,4.87478 -0.54703,4.42518 -0.73079,5.52903 -0.78252,4.70052 z m 215.782894,-3.33947 c -0.66839,-1.99949 -1.1702,-3.68049 -1.11514,-3.73555 0.0551,-0.0551 0.64698,1.53583 1.31537,3.53533 0.66839,1.99949 1.1702,3.68049 1.11514,3.73555 -0.0551,0.0551 -0.64698,-1.53584 -1.31537,-3.53533 z m -46.445669,2.39138 c 0.0127,-0.30822 0.07539,-0.37092 0.159852,-0.15985 0.07643,0.191 0.06703,0.4192 -0.02089,0.50712 -0.08792,0.0879 -0.150453,-0.0684 -0.138964,-0.34727 z m 4.497916,0 c 0.0127,-0.30822 0.07539,-0.37092 0.159853,-0.15985 0.07643,0.191 0.06703,0.4192 -0.02089,0.50712 -0.08792,0.0879 -0.150452,-0.0684 -0.138963,-0.34727 z m -19.982231,-0.7864 c -0.09961,-0.53098 -0.128196,-1.01833 -0.06352,-1.08301 0.06468,-0.0647 0.199094,0.31685 0.298706,0.84783 0.09961,0.53097 0.128196,1.01833 0.06352,1.083 -0.06468,0.0647 -0.199093,-0.31684 -0.298706,-0.84782 z m 24.723844,0.78954 c 0,-0.55866 2.50597,-11.51319 2.58175,-11.28583 0.0458,0.13752 -0.46961,2.73734 -1.14544,5.77739 -1.10585,4.97433 -1.43631,6.2417 -1.43631,5.50844 z m -88.57169,-1.17028 c -1.035391,-0.63129 -1.923654,-2.00144 -1.887739,-2.91185 0.02241,-0.56808 0.05472,-0.541 0.228822,0.19181 0.261586,1.101 0.91077,2.08214 1.661335,2.51086 0.416392,0.23784 2.464039,0.38263 6.813021,0.48175 l 6.217708,0.14171 -6.085416,0.0557 c -5.662114,0.0519 -6.1454,0.0192 -6.947731,-0.47002 z m 83.455643,-0.0553 c -0.753282,-3.00131 -3.09141,-13.82065 -3.027904,-14.01117 0.0448,-0.13441 0.821648,3.05692 1.726319,7.09185 0.904671,4.03492 1.601936,7.37915 1.549478,7.43161 -0.05246,0.0525 -0.16401,-0.17807 -0.247893,-0.51229 z m 26.348857,0.40779 c -0.1819,-0.0734 -0.33073,-0.41225 -0.33073,-0.75301 0,-0.69548 2.58117,-8.3168 4.30884,-12.72255 1.62333,-4.13967 1.81211,-4.10175 3.68209,0.73952 0.8037,2.08073 2.0842,5.66242 2.84554,7.95931 1.11549,3.36529 1.32176,4.25147 1.06234,4.56406 -0.26489,0.31918 -1.28888,0.3842 -5.77964,0.36701 -3.00174,-0.0115 -5.60654,-0.0809 -5.78844,-0.15434 z m 11.27405,-0.44178 c 0.31237,-0.37637 -1.6518,-6.61655 -3.92818,-12.47986 -1.29418,-3.33342 -1.44742,-3.5695 -1.96771,-3.03137 -0.8248,0.85308 -5.64083,14.70532 -5.3637,15.42749 0.14791,0.38545 0.79524,0.43617 5.56724,0.43617 4.17441,0 5.46624,-0.08 5.69235,-0.35243 z m -62.355375,-1.5595 c -0.159921,-0.76745 -0.896152,-4.23831 -1.636069,-7.71303 -0.739918,-3.47472 -1.300245,-6.45128 -1.245172,-6.61458 0.05507,-0.16331 0.186272,0.17933 0.291554,0.76141 0.105281,0.58209 0.848544,4.13447 1.651696,7.8942 0.803151,3.75972 1.408183,6.88795 1.344516,6.95161 -0.06367,0.0637 -0.246604,-0.51215 -0.406525,-1.27961 z m 4.595505,-0.35173 c -0.09961,-0.53098 -0.128196,-1.01833 -0.06352,-1.08301 0.06468,-0.0647 0.199094,0.31685 0.298706,0.84783 0.09961,0.53097 0.128196,1.01833 0.06352,1.083 -0.06468,0.0647 -0.199093,-0.31684 -0.298706,-0.84782 z m -89.509434,-2.36655 c 0.0029,-0.58208 0.05712,-0.78905 0.120406,-0.45993 0.06329,0.32911 0.06088,0.80536 -0.0053,1.05833 -0.06622,0.25296 -0.118003,-0.0163 -0.115066,-0.5984 z m 88.719884,-1.34181 c -0.249154,-1.25457 -0.401979,-2.33205 -0.339613,-2.39442 0.06237,-0.0624 0.317245,0.91307 0.566398,2.16763 0.249153,1.25456 0.401979,2.33205 0.339613,2.39441 -0.06237,0.0624 -0.317245,-0.91306 -0.566398,-2.16762 z m -64.417858,1.50533 c -0.04335,-1.00887 1.006078,-2.42639 2.196618,-2.96708 0.919633,-0.41765 1.770612,-0.49299 5.62408,-0.49792 5.106595,-0.007 6.747742,-0.34046 8.87858,-1.80651 2.444662,-1.68197 3.747558,-4.94476 3.15425,-7.89905 -0.65359,-3.25447 -3.107841,-5.64921 -6.783736,-6.61924 l -1.322917,-0.34911 1.146346,0.13859 c 2.553562,0.30872 5.380458,2.38929 6.581356,4.84384 1.553191,3.17461 0.733971,7.18917 -1.948952,9.55077 -2.152031,1.89429 -3.428874,2.21532 -9.482916,2.38418 -3.260862,0.0909 -5.494747,0.2652 -5.820834,0.45403 -0.921182,0.53345 -1.772399,1.61314 -1.987173,2.52055 -0.162734,0.68754 -0.213474,0.74093 -0.234702,0.24695 z m 145.153288,-0.62654 c -1.11822,-1.91876 -4.80901,-9.43349 -6.26997,-12.76615 -0.76552,-1.74625 -1.57432,-3.38335 -1.79734,-3.63802 -0.45671,-0.52151 -1.92009,-0.61836 -2.73704,-0.18114 -0.28969,0.15504 -0.6315,0.54199 -0.75959,0.8599 -0.17104,0.42451 -0.23734,0.46015 -0.24966,0.1342 -0.0265,-0.7005 1.25718,-1.54056 2.35404,-1.54056 0.67732,0 1.14096,0.18241 1.51314,0.59531 0.29514,0.32742 1.45018,2.61938 2.56677,5.09323 2.60447,5.77032 5.72341,11.77161 6.30831,12.13808 0.3588,0.22481 0.53975,0.17419 0.84958,-0.23767 0.72189,-0.95964 3.78809,-7.08133 5.96061,-11.90041 1.18086,-2.61937 2.39374,-4.97086 2.69529,-5.22552 0.30156,-0.25466 0.87861,-0.46302 1.28234,-0.46302 0.8714,0 2.46468,0.62319 2.21968,0.8682 -0.0943,0.0943 -0.42043,-0.003 -0.72474,-0.21608 -0.63122,-0.44213 -1.83505,-0.50676 -2.52829,-0.13575 -0.25876,0.13848 -0.86652,1.18028 -1.35059,2.3151 -1.33294,3.12487 -6.15266,13.02447 -6.96225,14.3003 -0.42859,0.67542 -0.9135,1.12448 -1.21425,1.12448 -0.30988,0 -0.75046,-0.42855 -1.15604,-1.12448 z m -48.44756,-0.33073 c 0.0764,-0.58208 0.36461,-1.9513 0.64047,-3.04271 0.27586,-1.0914 0.43906,-1.50812 0.36266,-0.92604 -0.0764,0.58208 -0.36461,1.9513 -0.64047,3.04271 -0.27586,1.09141 -0.43906,1.50812 -0.36266,0.92604 z m 11.37522,-0.13229 c 0.37907,-1.55907 3.69731,-10.15057 4.90187,-12.69181 1.324,-2.79319 1.93019,-3.71236 2.44831,-3.71236 0.15535,0 0.0409,0.16917 -0.25426,0.37593 -0.75359,0.52783 -2.92799,5.2594 -4.99481,10.86886 -1.85064,5.02274 -2.38975,6.34655 -2.10111,5.15938 z m 15.99677,-5.88878 c -2.59216,-6.95559 -3.8815,-9.87905 -4.47594,-10.1488 -0.23874,-0.10834 -1.20797,-0.27593 -2.15386,-0.37244 l -1.71979,-0.17547 1.53449,-0.0416 c 2.2601,-0.0613 2.83781,0.34664 3.94609,2.7866 1.12058,2.46704 5.30176,13.59742 5.16086,13.73831 -0.0542,0.0542 -1.08557,-2.54972 -2.29185,-5.78657 z m -148.96461,2.83505 c -0.182455,-1.53954 -0.277167,-2.85374 -0.21047,-2.92044 0.0667,-0.0667 0.270549,1.13836 0.453005,2.6779 0.182455,1.53954 0.277167,2.85374 0.21047,2.92043 -0.0667,0.0667 -0.270549,-1.13835 -0.453005,-2.67789 z m -61.856804,-0.51815 c 0.003,-0.58208 0.0571,-0.78905 0.12041,-0.45993 0.0633,0.32912 0.0609,0.80537 -0.005,1.05833 -0.0662,0.25297 -0.118,-0.0163 -0.11507,-0.5984 z m 160.046813,0.39688 c -0.0098,-0.21828 0.440852,-2.24234 1.001378,-4.49792 0.560526,-2.25557 1.027692,-3.92245 1.038147,-3.70416 0.01045,0.21828 -0.440165,2.24234 -1.001377,4.49791 -0.561213,2.25558 -1.028379,3.92245 -1.038148,3.70417 z m -151.580143,-0.92604 c 0.0029,-0.58209 0.05712,-0.78906 0.120406,-0.45994 0.06329,0.32912 0.06088,0.80537 -0.0053,1.05834 -0.06622,0.25296 -0.118003,-0.0163 -0.115066,-0.5984 z m 142.056303,0.39687 c 0,-0.3638 0.06005,-0.51263 0.133452,-0.33073 0.0734,0.1819 0.0734,0.47956 0,0.66146 -0.0734,0.1819 -0.133452,0.0331 -0.133452,-0.33073 z m -0.264584,-1.32291 c 0,-0.36381 0.06005,-0.51263 0.133452,-0.33073 0.0734,0.1819 0.0734,0.47955 0,0.66146 -0.0734,0.1819 -0.133452,0.0331 -0.133452,-0.33073 z m -150.043529,0 c -0.0463,-0.742 1.14232,-9.8835 1.24505,-9.57531 0.0562,0.16861 -0.15193,2.36226 -0.46253,4.87479 -0.54703,4.42518 -0.73079,5.52902 -0.78252,4.70052 z m 184.555084,-0.92605 c 0.0731,-0.58208 0.30017,-1.71317 0.50458,-2.51354 0.28714,-1.12421 0.34144,-1.21448 0.23876,-0.39687 -0.0731,0.58208 -0.30017,1.71317 -0.50459,2.51354 -0.28713,1.12422 -0.34143,1.21449 -0.23875,0.39687 z m -176.038691,-0.26458 c 0.0029,-0.58208 0.05712,-0.78905 0.120406,-0.45993 0.06329,0.32911 0.06088,0.80536 -0.0053,1.05833 -0.06622,0.25296 -0.118003,-0.0163 -0.115067,-0.5984 z m 171.175521,0.52917 c -0.003,-0.29104 0.14699,-1.12448 0.33402,-1.85209 0.18702,-0.7276 0.34276,-1.08479 0.34607,-0.79375 0.003,0.29105 -0.14699,1.12448 -0.33401,1.85209 -0.18702,0.7276 -0.34276,1.08479 -0.34608,0.79375 z m -66.073298,-0.30513 c 0.265419,-0.9779 0.659326,-3.61548 0.705198,-4.72196 0.04154,-1.00194 0.04962,-1.01168 0.151761,-0.1827 0.130698,1.06078 -0.369265,4.45999 -0.742735,5.04979 -0.217936,0.34417 -0.239569,0.31668 -0.114224,-0.14513 z m 35.244376,-4.60469 c -1.069724,-5.36822 -1.296109,-5.80581 -3.003619,-5.80581 -0.623255,0 -1.122467,0.21371 -1.589,0.68025 -0.569728,0.56973 -0.653872,0.83838 -0.517918,1.65364 0.394667,2.36665 0.408294,3.04566 0.03016,1.50257 -0.517876,-2.11333 -0.324936,-3.19334 0.661618,-3.70351 1.099006,-0.56831 2.243548,-0.49363 3.031113,0.19778 0.58815,0.51635 0.801039,1.20843 1.604938,5.21747 0.509762,2.54219 0.8882,4.73808 0.840972,4.87977 -0.04723,0.14168 -0.523445,-1.93829 -1.05826,-4.62216 z m -87.694515,3.32232 c 0.0029,-0.58209 0.05712,-0.78906 0.120405,-0.45994 0.06329,0.32912 0.06088,0.80537 -0.0053,1.05834 -0.06622,0.25296 -0.118003,-0.0163 -0.115066,-0.5984 z m -52.3875,-1.05834 c 0.0029,-0.58208 0.05712,-0.78905 0.120405,-0.45993 0.06329,0.32912 0.06088,0.80537 -0.0053,1.05833 -0.06622,0.25297 -0.118003,-0.0163 -0.115066,-0.5984 z m 51.802634,-2.92144 c -0.182456,-1.53954 -0.277167,-2.85373 -0.21047,-2.92043 0.0667,-0.0667 0.270549,1.13836 0.453004,2.6779 0.182456,1.53954 0.277167,2.85373 0.21047,2.92043 -0.0667,0.0667 -0.270549,-1.13836 -0.453004,-2.6779 z m 120.002723,1.33394 c 0.0731,-0.58208 0.30017,-1.71317 0.50458,-2.51354 0.28714,-1.12421 0.34144,-1.21448 0.23876,-0.39687 -0.0731,0.58208 -0.30017,1.71317 -0.50459,2.51354 -0.28713,1.12422 -0.34143,1.21449 -0.23875,0.39687 z m -12.435114,-1.48608 c -0.604726,-2.81413 -0.850313,-3.30037 -1.924326,-3.81003 -1.656483,-0.78605 -3.255567,0.15 -3.92589,2.29808 -0.196681,0.63027 -0.365567,0.93377 -0.375301,0.67443 -0.0506,-1.348 1.348018,-3.14922 2.692051,-3.46699 1.003214,-0.23718 2.464958,0.43012 2.930879,1.33798 0.424934,0.828 1.36626,4.80996 1.180885,4.99534 -0.06444,0.0644 -0.324669,-0.84853 -0.578298,-2.02881 z m -159.10566,0.95692 c 0.0029,-0.58209 0.05712,-0.78906 0.120406,-0.45994 0.06329,0.32912 0.06088,0.80537 -0.0053,1.05834 -0.06622,0.25296 -0.118003,-0.0163 -0.115066,-0.5984 z m 176.453334,0.13229 c -0.0109,-0.21828 0.14131,-1.11125 0.33833,-1.98438 0.19702,-0.87312 0.35899,-1.28984 0.35994,-0.92604 0.002,0.74221 -0.66717,3.53103 -0.69827,2.91042 z M 41.527409,-166.743 c -0.02329,-0.44653 -0.232409,-1.45856 -0.464711,-2.24896 -1.472731,-5.0109 -5.56508,-9.34106 -10.47746,-11.08632 -0.771814,-0.27421 -1.258936,-0.50726 -1.082493,-0.51789 0.176442,-0.0106 0.96771,0.22271 1.758373,0.51853 3.079359,1.15214 6.460124,3.97394 8.234457,6.87301 1.133798,1.8525 2.316198,5.34621 2.179031,6.43851 l -0.104854,0.83499 z m 67.449151,-1.78096 c -0.032,-0.67052 0.66962,-1.94186 1.17974,-2.13761 0.83741,-0.32134 2.44692,-0.16115 3.00074,0.29867 0.30673,0.25466 0.6177,0.87974 0.69106,1.38906 0.12616,0.87591 0.11987,0.88511 -0.11621,0.17001 -0.42099,-1.27519 -1.04246,-1.75751 -2.26453,-1.75751 -1.2293,0 -1.86394,0.49762 -2.2415,1.75751 -0.133,0.44383 -0.23595,0.5594 -0.2493,0.27987 z m -121.399771,-1.11134 c 0.0029,-0.58208 0.05712,-0.78905 0.120406,-0.45993 0.06329,0.32912 0.06088,0.80537 -0.0053,1.05833 -0.06622,0.25297 -0.118003,-0.0163 -0.115067,-0.5984 z m -58.737503,-0.52916 c 0.003,-0.58209 0.0571,-0.78906 0.12041,-0.45994 0.0633,0.32912 0.0609,0.80537 -0.005,1.05834 -0.0662,0.25296 -0.118,-0.0163 -0.11507,-0.5984 z m 58.152637,-3.45061 c -0.182455,-1.53954 -0.277167,-2.85374 -0.21047,-2.92043 0.0667,-0.0667 0.27055,1.13835 0.453005,2.6779 0.182456,1.53954 0.277167,2.85373 0.21047,2.92043 -0.0667,0.0667 -0.270549,-1.13836 -0.453005,-2.6779 z m -57.924077,1.84629 c -0.0677,-1.20495 0.77564,-6.5161 1.14953,-7.23911 0.21961,-0.42468 0.78804,-1.04942 1.263177,-1.38832 0.738731,-0.5269 1.208873,-0.62122 3.245138,-0.65105 l 2.38125,-0.0349 -2.248959,0.16892 c -2.559076,0.19222 -3.758636,0.71143 -4.368526,1.89084 -0.22481,0.43472 -0.58663,2.18888 -0.80405,3.89812 -0.43908,3.45171 -0.57166,4.17209 -0.61756,3.35548 z m 99.121907,-9.02195 c 0.181901,-0.0734 0.479557,-0.0734 0.661459,0 0.181901,0.0734 0.03307,0.13345 -0.33073,0.13345 -0.363802,0 -0.51263,-0.06 -0.330729,-0.13345 z"
         id="path9" /><path
         style="fill:#1c1c1a"
         d="m -12.098595,-122.12385 c -1.118398,-0.26822 -2.206981,-1.03266 -2.625817,-1.84395 -0.195441,-0.37858 -0.553352,-2.53379 -0.795358,-4.78936 -0.609432,-5.68012 -4.621435,-37.89235 -4.770033,-38.29844 -0.06656,-0.1819 -0.347386,-0.33073 -0.62405,-0.33073 -0.943985,0 -4.3277,7.9935 -9.576031,22.62188 -1.775126,4.94771 -3.918952,11.04806 -4.764058,13.55633 -0.845106,2.50828 -1.784742,4.90905 -2.088079,5.33505 -0.663962,0.93245 -2.985839,2.14356 -4.105592,2.14152 -1.475403,-0.003 -2.834579,-0.55575 -3.995361,-1.62572 -0.975329,-0.89903 -1.274213,-1.44223 -1.990682,-3.61793 -3.914442,-11.88702 -10.132709,-28.67476 -12.649881,-34.15146 -1.70499,-3.70961 -2.381714,-4.66574 -2.917026,-4.12143 -0.206177,0.20965 -3.524476,25.87904 -5.140316,39.76399 -0.320702,2.7558 -0.475495,3.36065 -1.005215,3.92774 -1.00185,1.07253 -1.92255,1.41378 -3.81445,1.41378 -1.6481,0 -1.81629,-0.0569 -2.65897,-0.89958 -0.7996,-0.7996 -0.89939,-1.05691 -0.89777,-2.3151 0.003,-2.61995 6.54511,-52.77242 6.99763,-53.64751 0.65764,-1.27172 2.134208,-1.87635 4.565533,-1.8695 3.961547,0.0112 5.394047,1.31704 8.555692,7.7994 2.692974,5.52144 5.407472,12.0511 10.009274,24.07708 2.060318,5.38428 3.846211,9.96818 3.96865,10.18646 0.12244,0.21828 0.438047,0.39688 0.701349,0.39688 0.38227,0 1.032244,-1.43942 3.22579,-7.14375 4.408475,-11.46428 7.667229,-19.50928 9.913561,-24.47396 4.22699,-9.34219 5.618307,-10.82971 10.140874,-10.84211 2.514117,-0.007 3.721405,0.5025 4.43414,1.87089 0.349441,0.67089 1.313688,7.47872 3.770313,26.61935 1.815436,14.14486 3.300794,26.30986 3.300794,27.03335 0,2.55814 -2.206098,3.93643 -5.164911,3.22683 z m 13.166138,-0.54646 c -0.474273,-0.28917 -1.098906,-0.9138 -1.388073,-1.38808 -0.515416,-0.84535 -0.52576,-1.38544 -0.52576,-27.45294 0,-26.06749 0.01034,-26.60759 0.52576,-27.45294 0.289167,-0.47427 0.9138,-1.0989 1.388073,-1.38807 0.829121,-0.50552 1.356683,-0.5258 13.705163,-0.52675 14.301269,-0.001 14.417003,0.0104 17.98111,1.78585 2.631647,1.31096 5.607149,4.23341 6.935785,6.81212 1.727799,3.35344 2.326144,6.61744 1.81592,9.90592 -0.382471,2.46508 -1.137643,4.21342 -2.727168,6.31382 -0.694121,0.91721 -1.262037,1.81893 -1.262037,2.00382 0,0.18489 0.844267,0.91302 1.87615,1.61808 4.634494,3.16661 7.383028,8.80397 7.031494,14.4219 -0.369783,5.90959 -4.025044,11.4553 -9.229709,14.00318 -3.880825,1.89982 -3.578282,1.87194 -20.304878,1.87083 -14.460583,-9.5e-4 -14.988276,-0.0185 -15.82183,-0.52674 z m 32.788427,-8.40452 c 2.038275,-1.00377 3.437821,-2.43861 4.418333,-4.52974 0.58344,-1.24431 0.696615,-1.85398 0.693509,-3.73592 -0.0032,-1.94029 -0.104308,-2.44085 -0.73664,-3.64706 -1.540481,-2.93855 -4.482759,-4.87336 -8.12319,-5.34172 -1.091406,-0.14042 -4.544218,-0.25942 -7.672916,-0.26446 -5.166765,-0.008 -5.766237,-0.0565 -6.535593,-0.52564 -1.096748,-0.66872 -1.710588,-1.8842 -1.710588,-3.38716 0,-1.29424 0.482899,-2.15532 1.732609,-3.08949 0.662704,-0.49538 1.220482,-0.55908 6.069068,-0.69311 6.106759,-0.16882 7.373869,-0.4858 9.530545,-2.38418 2.682923,-2.3616 3.502143,-6.37616 1.948952,-9.55077 -1.244766,-2.54421 -3.814529,-4.38403 -6.927037,-4.95941 -2.04544,-0.37812 -18.239386,-0.3904 -18.942017,-0.0144 -0.499458,0.2673 -0.511773,0.78563 -0.511773,21.54149 0,16.76376 0.07004,21.29696 0.33073,21.40623 0.181901,0.0763 5.81037,0.11594 12.50771,0.0882 l 12.176981,-0.0504 z m 83.11517,-2.04828 c -1.32092,-0.92521 -1.1112,-1.86567 3.48099,-15.61009 4.19446,-12.55403 7.61995,-20.89207 8.85445,-21.55276 0.68299,-0.36553 3.26703,-0.35183 4.08676,0.0217 0.82315,0.37506 1.79094,2.48108 4.66607,10.15401 3.05387,8.14992 8.46524,24.14812 8.46524,25.02668 0,0.89634 -1.08233,1.82853 -2.12303,1.82853 -1.33097,0 -1.75577,-0.702 -3.42559,-5.66099 -0.87691,-2.60421 -1.72819,-4.89617 -1.89174,-5.09323 -0.44558,-0.53689 -15.11079,-0.52484 -15.55698,0.0128 -0.16938,0.20409 -0.96472,2.5552 -1.76742,5.22469 -0.90558,3.0116 -1.67201,5.07986 -2.01951,5.44976 -0.65551,0.69776 -1.9267,0.78908 -2.76924,0.19894 z m 20.28565,-15.60112 c 0.25942,-0.31258 0.0532,-1.19877 -1.06234,-4.56406 -0.76134,-2.29689 -2.04184,-5.87858 -2.84554,-7.95931 -1.86998,-4.84127 -2.05876,-4.87919 -3.68209,-0.73952 -1.72767,4.40576 -4.30884,12.02707 -4.30884,12.72255 0,0.34076 0.14883,0.67962 0.33073,0.75301 0.1819,0.0734 2.7867,0.14286 5.78844,0.15434 4.49076,0.0172 5.51475,-0.0478 5.77964,-0.36701 z m -56.90675,15.07281 c -0.398595,-0.21664 -0.919819,-0.91086 -1.2336,-1.64305 -0.554652,-1.29424 -2.243895,-6.98395 -3.204347,-10.7929 -1.075804,-4.2664 -4.793694,-21.93427 -4.793694,-22.78022 0,-0.74091 1.241917,-1.69374 2.20762,-1.69374 1.80183,0 1.859467,0.14353 3.727571,9.28229 2.087353,10.21133 4.346619,20.31681 4.682513,20.94443 0.355726,0.66469 0.995666,0.57382 1.283096,-0.18217 0.61617,-1.62065 3.290559,-11.86346 5.012225,-19.19663 1.111332,-4.73355 2.093189,-8.34318 2.37494,-8.73107 0.264182,-0.3637 0.901666,-0.82164 1.416631,-1.01764 0.815494,-0.31037 1.056177,-0.29947 1.8654,0.0845 0.511006,0.24249 1.058642,0.75996 1.216971,1.14993 0.158328,0.38997 1.129111,4.51904 2.157295,9.17571 1.897606,8.59429 4.002959,16.93744 4.568569,18.10442 0.40084,0.82702 0.87019,0.97156 1.18963,0.36634 0.35515,-0.67288 2.34844,-9.21078 4.63906,-19.87057 1.36844,-6.3683 2.0909,-9.21682 2.43369,-9.5956 0.74279,-0.82077 2.66056,-0.62747 3.38088,0.34079 l 0.53747,0.72246 -0.86207,4.17233 c -3.41622,16.53412 -6.02382,26.91615 -7.48241,29.79078 -0.64978,1.28061 -1.94321,1.87085 -3.72464,1.69967 -1.51482,-0.14555 -2.339639,-0.81835 -2.942785,-2.4004 -0.619389,-1.62466 -3.695772,-13.05567 -4.805244,-17.85501 -0.527943,-2.28376 -1.061078,-4.2574 -1.184745,-4.38587 -0.664518,-0.69029 -1.05344,0.35768 -2.901235,7.81755 -2.557725,10.32598 -4.027718,14.88019 -5.172482,16.02495 -0.765626,0.76563 -1.027701,0.86382 -2.280554,0.85444 -0.778537,-0.006 -1.726126,-0.17941 -2.105755,-0.38575 z m 78.73029,-0.25309 -0.64943,-0.64943 v -6.51986 -6.51987 l -1.00444,-1.14111 c -1.86525,-2.11903 -8.93435,-15.82632 -9.80113,-19.00479 -0.32188,-1.18034 -0.0533,-2.12652 0.72135,-2.54109 0.81529,-0.43633 2.27877,-0.33867 2.73262,0.18235 0.22183,0.25467 1.19707,2.24896 2.1672,4.43177 0.97012,2.18282 2.80265,5.99282 4.07228,8.46667 2.65867,5.18037 2.9711,5.44303 4.18981,3.52232 0.8179,-1.28903 5.63167,-11.173 6.97272,-14.31689 0.48407,-1.13482 1.09183,-2.17662 1.35059,-2.3151 0.68069,-0.3643 1.89325,-0.30905 2.4969,0.11376 0.28704,0.20105 0.64096,0.34988 0.78648,0.33073 0.14552,-0.0191 0.30407,0.31141 0.35233,0.73457 0.11919,1.04499 -0.20984,2.71793 -0.45616,2.31937 -0.11765,-0.19036 -0.43826,0.28614 -0.81342,1.20893 -2.044,5.02777 -6.52096,13.5762 -8.64527,16.50755 l -0.88852,1.22607 v 6.65731 6.65731 l -0.64944,0.64943 c -0.40937,0.40937 -0.95172,0.64943 -1.46723,0.64943 -0.51551,0 -1.05786,-0.24006 -1.46724,-0.64943 z"
         id="path8" /></g></g></svg>
